<svg xmlns="http://www.w3.org/2000/svg" viewBox="0 0 92 92"><path d="M82.4 30.2c1.1-1 5.5-5.1 5.6-11.2.1-4.4-2-8.4-6.2-12l-.1-.1c-5-3.9-9.4-4.1-12.2-3.6-4.9.9-8.2 4.4-9.6 6.3C55.5 7.9 50.8 7 46 7c-4.8 0-9.5.9-13.8 2.4-1.5-1.9-4.7-5.4-9.6-6.3-2.8-.5-7.2-.3-12.2 3.6l-.1.1C6 10.6 3.9 14.6 4 19c.1 6.1 4.4 10.2 5.6 11.2-2.5 5.2-3.8 11-3.8 17.2 0 10.1 3.8 19.4 10 26.5l-.2.2-5.8 8.7c-1.2 1.8-.7 4.3 1.1 5.5.7.5 1.5.7 2.2.7 1.3 0 2.6-.6 3.3-1.8l5.2-7.8c6.8 5.2 15.2 8.3 24.4 8.3s17.7-3.1 24.5-8.4l5.3 7.9c.8 1.2 2 1.8 3.3 1.8.8 0 1.5-.2 2.2-.7 1.8-1.2 2.3-3.7 1.1-5.5l-5.8-8.7-.3-.3c6.1-7.1 9.8-16.3 9.8-26.4.1-6.2-1.2-12-3.7-17.2zM70.9 11.1c1.7-.3 3.6.4 5.7 2 2.3 2 3.4 3.9 3.4 5.8 0 1.7-1 3.3-1.9 4.3-3-4-6.7-7.3-10.9-10 1-1 2.3-1.9 3.7-2.1zM12 18.9c0-1.9 1.1-3.8 3.4-5.8 2.1-1.6 4-2.3 5.7-2 1.4.3 2.7 1.2 3.7 2.1-4.2 2.6-7.9 6-10.9 10-.8-1.1-1.9-2.6-1.9-4.3zm34 60.8c-17.8 0-32.2-14.5-32.2-32.3S28.2 15 46 15s32.2 14.5 32.2 32.3S63.8 79.7 46 79.7zm14.5-23.5c1.6 1.6 1.6 4.1 0 5.7-.8.8-1.8 1.2-2.8 1.2-1 0-2-.4-2.8-1.2L43.2 50.2c-.7-.8-1.2-1.8-1.2-2.8V25.8c0-2.2 1.8-4 4-4s4 1.8 4 4v19.9l10.5 10.5z"/></svg>