<svg xmlns="http://www.w3.org/2000/svg" viewBox="0 0 92 92"><path d="M15.7 22c0-2.2 1.8-4 4-4h52.5c2.2 0 4 1.8 4 4s-1.8 4-4 4H19.7c-2.2 0-4-1.8-4-4zm10.6-10h39.4c1.9 0 3.5-1.6 3.5-3.5S67.6 5 65.7 5H26.3c-1.9 0-3.5 1.6-3.5 3.5s1.6 3.5 3.5 3.5zM92 26.6v10.9c0 .4-.1.8-.2 1.1L79 85.1c-.5 1.7-2 2.9-3.8 2.9H16.6c-1.8 0-3.4-1.2-3.9-3L.2 38.6c-.1-.2-.1-.4-.2-.6V26.6c0-2.2 1.8-4 4-4s4 1.8 4 4V34h76v-7.4c0-2.2 1.8-4 4-4s4 1.8 4 4zM82.7 42H9.2l10.4 38h52.5l10.6-38zM34.2 62h23.6c2.2 0 4-1.8 4-4s-1.8-4-4-4H34.2c-2.2 0-4 1.8-4 4s1.8 4 4 4z"/></svg>