<svg xmlns="http://www.w3.org/2000/svg" viewBox="0 0 92 92"><path d="M76 2H16c-2.2 0-4 1.8-4 4v80c0 2.2 1.8 4 4 4h60c2.2 0 4-1.8 4-4V6c0-2.2-1.8-4-4-4zm-4 80H20V10h52v72zM30 67.5c0-1.9 1.6-3.5 3.5-3.5h23.8c1.9 0 3.5 1.6 3.5 3.5S59.3 71 57.3 71H33.5c-1.9 0-3.5-1.6-3.5-3.5zm0-14c0-1.9 1.6-3.5 3.5-3.5h23.8c1.9 0 3.5 1.6 3.5 3.5S59.3 57 57.3 57H33.5c-1.9 0-3.5-1.6-3.5-3.5zm31-29c0-1.9-1.6-3.5-3.5-3.5h-24c-1.9 0-3.5 1.6-3.5 3.5v14c0 1.9 1.6 3.5 3.5 3.5h24c1.9 0 3.5-1.6 3.5-3.5v-14zM37 28h17v7H37v-7z"/></svg>