<svg xmlns="http://www.w3.org/2000/svg" viewBox="0 0 92 92"><path d="M46 0C20.6 0 0 20.6 0 46s20.6 46 46 46 46-20.6 46-46S71.4 0 46 0zm29 70.5c-2.6-2.4-6.9-7.4-8.5-15.1 7.8-1.1 13.4-2.7 17.1-4-1 7.1-4.1 13.7-8.6 19.1zM8.4 51.3c3.7 1.3 9.3 2.9 17.1 4C24 63 19.6 68.1 17 70.4c-4.5-5.3-7.6-11.9-8.6-19.1zm6.3-26.9c3.2 3.4 10.1 12 11.1 22.9-9.7-1.5-15.4-3.7-17.7-4.7.7-6.7 3-12.9 6.6-18.2zm69.1 18.2c-2.3 1-7.9 3.3-17.7 4.7 1-10.8 8-19.5 11.1-22.9 3.7 5.3 6 11.5 6.6 18.2zm-25.7 5.6c-2.5.2-5.2.3-8.1.4V8.2c8.5.9 16.1 4.6 22 10.1-3.7 3.9-13.3 15.2-13.9 29.9zm-16.1.5c-2.9-.1-5.6-.2-8.1-.4-.7-14.8-10.3-26-14-29.9 5.9-5.5 13.5-9.2 22-10.1v40.4zm-8.6 7.5c2.7.2 5.5.4 8.6.4v27.1c-7.2-.7-13.8-3.5-19.3-7.7 3.6-3.4 9-9.9 10.7-19.8zm16.6.5c3-.1 5.9-.2 8.6-.4 1.8 9.8 7.1 16.4 10.7 19.8-5.4 4.2-12.1 7-19.3 7.8V56.7z"/></svg>