<svg xmlns="http://www.w3.org/2000/svg" viewBox="0 0 92 92"><path d="M35 54V38c0-2.2 1.8-4 4-4h7c2.2 0 4 1.8 4 4v16c0 2.2-1.8 4-4 4h-7c-2.2 0-4-1.8-4-4zm25 4h7c2.2 0 4-1.8 4-4V43.8c0-1-.2-1.9-.9-2.6l-5.3-6c-.8-.9-1.8-1.2-3-1.2H60c-2.2 0-4 1.5-4 3.8V54c0 2.2 1.8 4 4 4zm-42 0h7c2.2 0 4-1.8 4-4V38c0-2.2-1.8-4-4-4h-7c-2.2 0-4 1.8-4 4v16c0 2.2 1.8 4 4 4zm74-19.4v14.8c0 2.2-1.8 3.6-4 3.6h-3v11c0 2.2-1.7 4-4 4H4c-2.2 0-4-1.8-4-4V24c0-2.2 1.8-4 4-4h77c2.2 0 4 1.8 4 4v11h3c2.2 0 4 1.4 4 3.6zM77 28H8v36h69V28z"/></svg>