<svg xmlns="http://www.w3.org/2000/svg" viewBox="0 0 92 92"><path d="M84 71.5c-6.7 0-9.3-3.9-9.3-28.4 0-19.2-8.7-31.2-23.7-33V3.9c0-2.2-1.8-4-4-4s-4 1.8-4 4v6C27 11.2 17.7 23.4 17.7 43c0 24.5-2.9 28.4-9.7 28.4-2.1.1-4 1.6-4 3.8C4 77.5 5.8 79 8 79h26c.3 3 1.2 6.7 3.6 9.3 2.1 2.3 4.9 3.6 8.2 3.6 3.3 0 6.1-1.4 8.2-3.6 2.5-2.7 3.5-6.3 3.9-9.3H84c2.2 0 4-1.5 4-3.8 0-2.2-1.8-3.7-4-3.7zM48.2 82.9c-.4.4-1 1-2.4 1-1.3 0-1.9-.6-2.3-1-.7-.9-1.2-1.9-1.4-3.9H50c-.4 2-.9 3-1.8 3.9zM46.6 71H21.8c3.7-7 3.7-17.9 3.7-28.1 0-16.3 7.1-24.9 19.9-24.9h1.1c12.8 0 19.9 8.6 19.9 24.9 0 10.2 0 21.1 3.7 28.1H46.6zm14.2-35.5c.1 1.9-1.4 3.6-3.3 3.7h-.2c-1.8 0-3.4-1.4-3.5-3.3-.3-4.5-3.8-6.1-4.2-6.3-1.8-.8-2.6-2.8-1.9-4.6.7-1.8 2.7-2.6 4.5-1.9.4.2 8.1 3.4 8.6 12.4z"/></svg>