<svg xmlns="http://www.w3.org/2000/svg" viewBox="0 0 92 92"><path d="M74.7 24H17.3c-2.2 0-4 1.8-4 4l-.6 51c0 1.1.4 2.1 1.2 2.9s1.8 1.2 2.8 1.2h58.4c1.1 0 2.1-.4 2.8-1.2.8-.8 1.2-1.8 1.2-2.8l-.4-51c0-2.3-1.8-4.1-4-4.1zM46 75H20.7l.5-43h49.5l.3 43H46zm12.8-32c0 2.2-1.8 4-4 4H37.2c-2.2 0-4-1.8-4-4s1.8-4 4-4h17.5c2.3 0 4.1 1.8 4.1 4zm30-16.1c-.3.1-.6.1-.8.1-1.9 0-3.6-1.3-3.9-3.2L82.8 17H9.2l-1.3 6.8C7.5 26 5.4 27.4 3.2 27 1 26.6-.4 24.5 0 22.3l1.9-10C2.4 10.4 4 9 5.9 9H86c1.9 0 3.6 1.4 3.9 3.2l1.9 10c.5 2.2-.9 4.3-3 4.7z"/></svg>