<svg xmlns="http://www.w3.org/2000/svg" viewBox="0 0 92 92"><path d="M46 23.7c-12.3 0-22.3 10-22.3 22.3s10 22.3 22.3 22.3 22.3-10 22.3-22.3-10-22.3-22.3-22.3zM31.7 46c0-7.9 6.4-14.3 14.3-14.3v28.5c-7.9.1-14.3-6.3-14.3-14.2zM42 12.3V4c0-2.2 1.8-4 4-4s4 1.8 4 4v8.3c0 2.2-1.8 4-4 4s-4-1.8-4-4zM92 46c0 2.2-1.8 4-4 4h-8.3c-2.2 0-4-1.8-4-4s1.8-4 4-4H88c2.2 0 4 1.8 4 4zM50 79.7V88c0 2.2-1.8 4-4 4s-4-1.8-4-4v-8.3c0-2.2 1.8-4 4-4s4 1.8 4 4zM12.3 50H4c-2.2 0-4-1.8-4-4s1.8-4 4-4h8.3c2.2 0 4 1.8 4 4s-1.8 4-4 4zM67 25c-1.6-1.6-1.6-4.1 0-5.7l5.8-5.8c1.6-1.6 4.1-1.6 5.7 0 1.6 1.6 1.6 4.1 0 5.7L72.7 25c-.8.8-1.8 1.2-2.8 1.2-1.1-.1-2.1-.4-2.9-1.2zm11.5 47.9c1.6 1.6 1.6 4.1 0 5.7-.8.8-1.8 1.2-2.8 1.2-1 0-2-.4-2.8-1.2L67 72.7c-1.6-1.6-1.6-4.1 0-5.7 1.6-1.6 4.1-1.6 5.7 0l5.8 5.9zM25 67c1.6 1.6 1.6 4.1 0 5.7l-5.8 5.8c-.8.8-1.8 1.2-2.8 1.2s-2-.4-2.8-1.2c-1.6-1.6-1.6-4.1 0-5.7l5.8-5.8c1.5-1.5 4-1.5 5.6 0zM13.5 19.1c-1.6-1.6-1.6-4.1 0-5.7 1.6-1.6 4.1-1.6 5.7 0l5.8 5.8c1.6 1.6 1.6 4.1 0 5.7-.8.8-1.8 1.2-2.8 1.2-1 0-2-.4-2.8-1.2l-5.9-5.8z"/></svg>