<svg xmlns="http://www.w3.org/2000/svg" viewBox="0 0 92 92"><path d="M46 28.7c-9.5 0-17.3 7.8-17.3 17.3S36.5 63.3 46 63.3 63.3 55.5 63.3 46 55.5 28.7 46 28.7zm0 26.6c-5.1 0-9.3-4.2-9.3-9.3 0-5.1 4.2-9.3 9.3-9.3s9.3 4.2 9.3 9.3c0 5.1-4.2 9.3-9.3 9.3zm-4-36.7V15c0-2.2 1.8-4 4-4s4 1.8 4 4v3.6c0 2.2-1.8 4-4 4s-4-1.8-4-4zM81 46c0 2.2-1.8 4-4 4h-3.6c-2.2 0-4-1.8-4-4s1.8-4 4-4H77c2.2 0 4 1.8 4 4zM50 73.4V77c0 2.2-1.8 4-4 4s-4-1.8-4-4v-3.6c0-2.2 1.8-4 4-4s4 1.8 4 4zM18.6 50H15c-2.2 0-4-1.8-4-4s1.8-4 4-4h3.6c2.2 0 4 1.8 4 4s-1.8 4-4 4zm43.9-20.5c-1.6-1.6-1.6-4.1 0-5.7l2.5-2.5c1.6-1.6 4.1-1.6 5.7 0 1.6 1.6 1.6 4.1 0 5.7l-2.5 2.5c-.8.8-1.8 1.2-2.8 1.2-1-.1-2.1-.5-2.9-1.2zm8.2 35.6c1.6 1.6 1.6 4.1 0 5.7-.8.8-1.8 1.2-2.8 1.2-1 0-2-.4-2.8-1.2l-2.5-2.5c-1.6-1.6-1.6-4.1 0-5.7 1.6-1.6 4.1-1.6 5.7 0l2.4 2.5zm-41.2-2.6c1.6 1.6 1.6 4.1 0 5.7L27 70.7c-.8.8-1.8 1.2-2.8 1.2-1 0-2-.4-2.8-1.2-1.6-1.6-1.6-4.1 0-5.7l2.5-2.5c1.5-1.5 4-1.5 5.6 0zm-8.2-35.6c-1.6-1.6-1.6-4.1 0-5.7 1.6-1.6 4.1-1.6 5.7 0l2.5 2.5c1.6 1.6 1.6 4.1 0 5.7-.8.8-1.8 1.2-2.8 1.2-1 0-2-.4-2.8-1.2l-2.6-2.5z"/></svg>