<svg xmlns="http://www.w3.org/2000/svg" viewBox="0 0 92 92"><path d="M91.5 34.3c-.9-3-2.7-5.4-5.4-6.8-3.4-1.8-7.4-1.6-10.2-1.1L70.1 5.9c-.4-1.4-1.5-2.5-2.9-2.8-1.4-.3-2.9.1-3.9 1.2-14.3 16-20.2 19.9-36 26.8l-12.4 3.6C4 37.8-2.3 49.4.8 60.3c1.5 5.3 5 9.8 9.9 12.5 3.1 1.7 6.5 2.6 9.9 2.6 1.6 0 3.3-.2 4.9-.6l1.3 4.7c.7 2.5 2.1 4.7 3.9 6.5l2.1 2c.8.7 1.8 1.1 2.8 1.1 1.1 0 2.1-.4 2.9-1.2 1.5-1.6 1.5-4.1-.2-5.7l-2.1-2c-.8-.8-1.4-1.8-1.7-2.9l-1.3-4.7 5.8-1.7c16.6-2.5 24.1-2.3 44.4 3.5.4.1.7.2 1.1.2 1 0 2.1-.4 2.8-1.2 1-1 1.4-2.5 1-3.9L82.4 49c2.6-1 6.1-2.8 8.1-6.1 1.5-2.6 1.9-5.5 1-8.6zM14.6 65.8c-3-1.6-5.1-4.4-6.1-7.6-1.9-6.8 2-13.8 8.6-15.8l9-2.6 4.1 14.5 2.8 10-9 2.6c-3.1.9-6.5.5-9.4-1.1zm40.7-4.4c-4.5 0-9 .4-14.3 1.1L35.2 42l-1.4-5c12.6-5.8 19.4-10.3 30.6-22l14.2 49.9c-9.5-2.5-16.3-3.5-23.3-3.5zm28.4-22.7c-.6 1.1-2.1 1.9-3.5 2.5l-2-7c1.5-.2 3.2-.2 4.3.4.5.3 1 .7 1.4 1.8.3 1.2 0 1.8-.2 2.3zm-25.4-6.6c1.1 1.6.8 3.8-.8 4.9-3.7 2.6-7.9 4.9-8.1 5-.5.3-1.1.4-1.6.4-1.3 0-2.5-.7-3.1-1.9-.9-1.7-.2-3.8 1.5-4.7 0 0 4-2.1 7.2-4.4 1.6-1.3 3.8-.9 4.9.7z"/></svg>