<svg xmlns="http://www.w3.org/2000/svg" viewBox="0 0 92 92"><path d="M50 47l.1 41c0 2.2-1.8 4-4 4s-4-1.8-4-4L42 46.9 30.4 58.5c-1.6 1.6-4.1 1.5-5.7 0-1.6-1.6-1.5-4.1 0-5.7l18.4-18.3c1.6-1.5 4.1-1.5 5.6 0l18.4 18.3c1.6 1.6 1.6 4.1 0 5.7-.8.8-1.8 1.2-2.8 1.2-1 0-2-.4-2.8-1.2L50 47zM92 4v66.7c0 2.2-1.8 4.3-4 4.3H63.4c-2.2 0-4-1.8-4-4s1.8-4 4-4H84V24H8v43h20.9c2.2 0 4 1.8 4 4s-1.8 4-4 4H4c-2.2 0-4-2.1-4-4.3V4c0-2.2 1.8-4 4-4h84c2.2 0 4 1.8 4 4zM40 17h10V8H40v9zm-6-9H24v9h10V8zM8 17h10V8H8v9zm76 0V8H56v9h28z"/></svg>