<svg xmlns="http://www.w3.org/2000/svg" viewBox="0 0 92 92"><path d="M92 8.7c0-2.3-.9-4.4-2.5-6l-.2-.2C86-.8 80.7-.8 77.4 2.4L28.6 47.7c-6.6-1.4-13.7.4-18.7 5.5C3 60 3.1 67.6 3.2 72.2v1.7c-.1 3.7-2 8.2-2.8 9.7-.5 1-.6 2.2-.2 3.2.4 1.1 1.2 1.9 2.2 2.3 4.7 2 9.4 2.9 13.9 2.9 7.9 0 15.4-3 21.1-8.7 4.7-4.7 7.3-10.4 7.3-16.1 0-1.4-.2-2.7-.4-4l45.2-48.6C91.1 13 92 10.9 92 8.7zM31.8 77.6c-5.9 5.9-14 7.8-22.5 5.4.9-2.5 1.8-5.8 1.9-9v-2c-.1-4.1-.2-8.7 4.3-13.1 4.8-4.8 12.7-4.8 17.6 0 2.4 2.4 3.7 5.3 3.7 8.3 0 3.5-1.8 7.2-5 10.4zM83.9 9l-.1.1-43.1 46.3c-.6-.8-1.2-1.5-1.9-2.2-.7-.7-1.5-1.3-2.2-1.9L82.9 8.2l.1-.1c.2-.2.5-.2.7 0l.2.2c.1.2.1.3.1.4 0 .1 0 .2-.1.3z"/></svg>