<svg xmlns="http://www.w3.org/2000/svg" viewBox="0 0 92 92"><path d="M46 27c-12.6 0-22.9 10.4-22.9 23.2C23.1 63 33.4 73.4 46 73.4S68.9 63 68.9 50.2C68.9 37.4 58.6 27 46 27zm0 38.5c-8.2 0-14.9-6.8-14.9-15.2S37.8 35 46 35s14.9 6.8 14.9 15.2S54.2 65.5 46 65.5zm11.1-14.3c-.2 1.8-1.7 3-3.5 3h-.5c-1.9-.3-3.3-2-3-3.9.4-2.9-3-4.5-3.2-4.6-1.7-.8-2.5-2.9-1.7-4.6.8-1.7 2.8-2.5 4.6-1.8 3.2 1.4 8.2 5.4 7.3 11.9zm-7.7 4.4c.7.7 1.2 1.8 1.2 2.8 0 1-.4 2.1-1.2 2.8-.8.7-1.8 1.2-2.8 1.2s-2.1-.4-2.8-1.2c-.7-.8-1.2-1.8-1.2-2.8 0-1.1.4-2.1 1.2-2.8.8-.8 1.8-1.2 2.8-1.2s2.1.4 2.8 1.2zM88 26H72.6l-4.3-16c-.5-1.7-2.1-3-3.9-3H27.5c-1.8 0-3.4 1.3-3.9 3l-4.3 16H4c-2.2 0-4 1.7-4 3.9V81c0 2.2 1.8 4 4 4h84c2.2 0 4-1.8 4-4V29.9c0-2.2-1.8-3.9-4-3.9zm-4 51H8V34h14.4c1.8 0 3.4-1.3 3.9-3l4.3-16h30.8l4.3 16c.5 1.7 2.1 3 3.9 3H84v43z"/></svg>