<svg xmlns="http://www.w3.org/2000/svg" viewBox="0 0 92 92"><path d="M91 44.4c-.6 8.6-7.2 17.8-20.3 17.8h-9.1c-2.2 0-4-1.9-4-4.1 0-2.2 1.8-4.1 4-4.1 0 0 3.1.1 9.1.1 8 0 12-5.1 12.4-10.3.4-5.3-3-11.2-11.3-12.4-1.1-.2-2.1-.8-2.7-1.7-.6-.9-.8-2.1-.6-3.2 1.1-4.5-.1-8.1-3-9.8-2.5-1.4-6.5-1.4-9.9 1.9-.9.9-2.2 1.3-3.4 1.1-1.2-.2-2.3-1-2.9-2.1C43.7 7.1 35 6.5 29.3 9.2c-5.5 2.6-9.9 9.1-6.5 17.3.4 1 .4 2.2-.1 3.2s-1.4 1.8-2.4 2.1C8.5 35.5 8.8 43.3 9.1 45.5c.6 4.3 4 8.6 9.3 8.6h12.2c2.2 0 4 1.8 4 4s-1.8 3.9-4 3.9H18.4C9.8 62 2.5 55.6 1.2 46.7c-1-6.9 1.8-16.1 12.7-21C11.5 15 17.5 6 25.7 2.1c8.4-4 20.2-2.9 28.1 8 4.9-2.7 10.7-2.9 15.5-.2 4.1 2.3 7.8 7.2 7.5 14.5 10.4 3.2 14.7 12.2 14.2 20zM59.7 68.6L50 78.4l-.1-36.3c0-2.2-1.8-4.1-4-4.1s-4 1.9-4 4.1l.1 36.2-9.7-9.7c-1.6-1.6-4.1-1.6-5.7 0-1.6 1.6-1.6 4.1 0 5.7l16.5 16.6c.8.8 1.8 1.2 2.8 1.2s2.1-.4 2.8-1.2l16.5-16.5c1.6-1.6 1.6-4.1 0-5.7-1.4-1.6-3.9-1.6-5.5-.1z"/></svg>