<svg xmlns="http://www.w3.org/2000/svg" viewBox="0 0 92 92"><path d="M71.2 78c-20 0-52.9-.1-53.5-.1C9 77.9 1.6 71.3.2 62.2c-1.1-7.1 1.9-16.6 13.1-21.6-2.6-11.1 3.7-20.5 12.1-24.4 5.3-2.5 11.1-2.8 16.5-1 4.7 1.6 8.9 4.8 12.1 9.3 5-2.8 10.9-3 15.8-.3 4.2 2.4 8.1 7.4 7.7 15 10.7 3.3 15 12.6 14.5 20.6-.7 8.8-7.4 18.2-20.8 18.2zM34.9 22c-2.2 0-4.4.5-6.2 1.4-5.8 2.7-10.3 9.5-6.8 18.1.4 1 .4 2.2-.1 3.2s-1.4 1.8-2.4 2.1C7.5 50.5 7.8 58.6 8.1 61c.7 4.4 4.2 8.9 9.6 8.9.3 0 33.4.1 53.5.1 8.3 0 12.4-5.4 12.8-10.8.4-5.5-3-11.7-11.6-12.9-1.1-.2-2.1-.8-2.7-1.7-.6-.9-.8-2.1-.6-3.2 1.1-4.8-.1-8.5-3.2-10.3-2.6-1.5-6.7-1.4-10.2 2-.9.9-2.2 1.3-3.4 1.1-1.3-.2-2.3-1-2.9-2.1-4-7.5-9.5-10.1-14.5-10.1z"/></svg>