<svg xmlns="http://www.w3.org/2000/svg" viewBox="0 0 92 92"><path d="M92 51.5c-.6 8.7-7.4 18.2-20.7 18.2H62c-2.2 0-4-1.7-4-3.9s1.8-3.8 4-3.8c0 0 3.2-.2 9.3-.2 8.3 0 12.4-5.6 12.8-10.9.4-5.5-3.1-11.6-11.6-12.8-1.1-.2-2.1-.8-2.7-1.7-.6-.9-.8-2.1-.6-3.2 1.1-4.7-.1-8.4-3.2-10.1-2.6-1.5-6.8-1.4-10.2 1.9-.9.9-2.2 1.3-3.4 1.1-1.2-.2-2.3-1-2.9-2.1-5.8-10.9-14.7-11.4-20.6-8.6-5.7 2.7-10.2 9.4-6.7 17.9.4 1 .4 2.2-.1 3.2s-1.4 1.8-2.4 2.1C7.5 42.3 7.8 50.3 8.1 52.7c.7 4.4 4.2 8.9 9.6 8.9l12.5.1c2.2 0 4 1.9 4 4.1 0 2.2-1.8 4.2-4 4.2l-12.4-.3C9 69.7 1.7 62.9.3 53.8c-1.1-7 1.9-16.4 13.1-21.4-2.6-11 3.6-20.3 12-24.2 8.6-4.1 20.7-2.9 28.7 8.2 5-2.8 10.9-3 15.8-.2 4.2 2.4 8 7.4 7.6 14.9 10.6 3.2 15 12.4 14.5 20.4zm-31.9 3.3c.8.8 1.8 1.2 2.8 1.2 1 0 2-.4 2.8-1.2 1.6-1.6 1.6-4.1 0-5.7l-16.9-17c-.7-.7-1.7-1.1-2.8-1.1-1.1 0-2.1.4-2.8 1.2l-16.9 17c-1.6 1.6-1.6 4.1 0 5.7 1.6 1.6 4.1 1.6 5.7 0l10-10.3.1 37.4c0 2.2 1.8 4 4 4s4-1.8 4-4L50 44.7l10.1 10.1z"/></svg>