<svg xmlns="http://www.w3.org/2000/svg" viewBox="0 0 92 92"><path d="M88.4 83.2c1.6 1.6 1.6 4.1 0 5.7-.8.8-1.8 1.2-2.8 1.2-1 0-2.1-.4-2.9-1.2L61 67.2v10.3c0 2.2-1.8 4-4 4s-4-1.8-4-4v-20c0-1.1.5-2.1 1.2-2.8.8-.7 1.8-1.2 2.9-1.2h20c2.2 0 4 1.8 4 4s-1.8 4-4 4H66.8l21.6 21.7zM56.9 39h20c2.2 0 4-1.8 4-4s-1.8-4-4-4H66.6L88.8 8.8c1.6-1.6 1.6-4.1 0-5.6-1.6-1.6-4.1-1.5-5.6 0L61 25.4V15.1c0-2.2-1.8-4.1-4-4.1s-4 1.8-4 4v20c0 1.1.4 2 1.2 2.8.7.8 1.7 1.2 2.7 1.2zm-22-27.7c-2.2 0-3.9 1.8-3.9 4v10.3L8.9 3.5C7.3 2 4.8 2 3.2 3.5c-1.6 1.6-1.6 4 0 5.5l22 21.9H15v.1c-2 0-4.1 1.9-4.1 4.1 0 2.2 1.8 4 4 4h20c1 0 2-.4 2.8-1.2.8-.8 1.1-1.8 1.1-2.8v-20c.1-2-1.7-3.8-3.9-3.8zM34.7 53h-20c-2.2 0-4 1.8-4 4s1.8 4 4 4H25L3.2 83c-1.6 1.6-1.6 4.2 0 5.7.8.8 1.8 1.2 2.9 1.2 1 0 2.2-.4 3-1.2L31 67v10.3c0 2.2 1.6 3.7 3.8 3.7h-.1c2.2 0 4-1.6 4-3.8V57.3c0-1.1-.4-2.2-1.2-3-.7-.8-1.7-1.3-2.8-1.3z"/></svg>