<svg xmlns="http://www.w3.org/2000/svg" viewBox="0 0 92 92"><path d="M46 21.9c-.7-.7-1.6-.9-2.5-.9H13.6c-2 0-4.6 1.2-4.6 3.1v63.3c0 2 2.6 4.5 4.6 4.5H61c2 0 3-2.6 3-4.5V41.8c0-.9-.1-1.7-.8-2.4L46 21.9zM55.9 42H43V29.1L55.9 42zM17 84V28h19v17.2c0 2 1.8 3.8 3.8 3.8H57v35H17zm65.4-66L65 .6c-.6-.5-1.2-.6-2-.6H33.1C31.4 0 30 .9 30 2.5v9.6c0 1.7 1.3 3 3 3s3-1.4 3-3V6h21v16.9c0 1.7 1.4 3.1 3.1 3.1H77v37h-4.1c-1.7 0-3 1.3-3 3s1.4 3 3 3h7.6c1.7 0 2.5-1.5 2.5-3.2V20.2c0-.8-.1-1.6-.6-2.2zM63 7l12.9 13H63V7z"/></svg>