<svg xmlns="http://www.w3.org/2000/svg" viewBox="0 0 92 92"><path d="M82.8 81.2c1.6 1.6 1.6 4.1 0 5.7C82 87.6 81 88 80 88c-1 0-2-.4-2.8-1.2L45.4 55 14 86.8c-.8.8-1.8 1.2-2.8 1.2-1 0-2-.4-2.8-1.2-1.6-1.6-1.6-4.1 0-5.7l31.4-31.8-5.4-5.3-.8.8c-2.5 2.5-5.9 3.9-9.5 3.9s-7-1.4-9.5-3.9L1.2 31.7c-1.6-1.6-1.6-4.1 0-5.7s4.1-1.6 5.7 0l13.3 13.2c1 1 2.4 1.6 3.9 1.6s2.8-.6 3.9-1.6l.9-.9-17.3-17c-1.6-1.6-1.6-4.1 0-5.7 1.6-1.6 4.1-1.6 5.7 0l17.1 17.1 1-1c2.1-2.1 2.1-5.6 0-7.8L22.1 10.8c-1.6-1.6-1.6-4.1 0-5.7 1.6-1.6 4.1-1.6 5.7 0L41 18.3c5.3 5.3 5.3 13.8 0 19.1l-1 1 5.3 5.3L80.6 7.9c.7-.8 1.8-1.2 2.8-1.2 1 0 2.1.4 2.8 1.2 8.9 8.9 7.4 21.4-3.8 32.6L68.9 54c-1.6 1.6-4.1 1.6-5.7 0-1.6-1.6-1.6-4.1 0-5.7l13.5-13.5c8.1-8.1 7.9-14.2 6.2-17.9L51 49.3l31.8 31.9z"/></svg>