<svg xmlns="http://www.w3.org/2000/svg" viewBox="0 0 92 92"><path d="M46 0C20.6 0 0 20.6 0 46s20.6 46 46 46 46-20.6 46-46S71.4 0 46 0zm0 8c21 0 38 17 38 38 0 5.3-1.1 10.4-3.1 15.1L58.4 49.9c1.4-4.5.3-9.6-3.2-13.2-3.6-3.6-8.7-4.6-13.2-3.2l-8.1-16.4c-.7-1.5-2.5-2.1-4-1.4-1.5.7-2.1 2.5-1.4 4l8.3 16.8-.1.1-.1.1-22.7-11.1C20.7 15 32.5 8 46 8zm-4.3 33.7c1.2-1.2 2.7-1.8 4.3-1.8s3.1.6 4.3 1.8c2.4 2.4 2.4 6.2 0 8.6-2.4 2.4-6.2 2.4-8.6 0-2.3-2.4-2.3-6.2 0-8.6zM66.4 78l-5.2-10.6c-.7-1.5-2.5-2.1-4-1.4-1.5.7-2.1 2.5-1.4 4l5.3 10.7c-4.6 2-9.8 3.2-15.1 3.2C25 84 8 67 8 46c0-5.3 1.1-10.4 3.1-15.1L33.6 42c-1.4 4.5-.3 9.6 3.2 13.2 2.5 2.5 5.9 3.8 9.2 3.8s6.7-1.3 9.2-3.8l.1-.1L78 66.4C75.1 71 71.1 75 66.4 78zm-8.9-18.5c.6.6 1 1.5 1 2.5 0 .9-.4 1.8-1 2.5s-1.6 1-2.5 1-1.8-.4-2.5-1-1-1.6-1-2.5.4-1.8 1-2.5c1.3-1.3 3.7-1.3 5 0z"/></svg>