<svg xmlns="http://www.w3.org/2000/svg" viewBox="0 0 92 92"><path d="M78.8 25.5L56.7 3.2c-.8-.8-1.8-1.2-2.9-1.2H16c-2.2 0-4 1.8-4 4v80c0 2.2 1.8 4 4 4h60c2.2 0 4-1.8 4-4V28.3c0-1.1-.4-2.1-1.2-2.8zM72 30H52V10h.2L72 30zM20 82V10h24v23.9c0 2.2 1.7 4.1 3.9 4.1H72v44H20zm37.5-29.9l-6.6 6.6 6.6 6.6c1.4 1.4 1.4 3.6 0 4.9-.7.7-1.6 1-2.5 1-.9 0-1.8-.3-2.5-1L46 63.7l-6.5 6.6c-.7.7-1.6 1-2.5 1-.9 0-1.8-.3-2.5-1-1.4-1.4-1.4-3.6 0-4.9l6.6-6.6-6.6-6.6c-1.4-1.4-1.4-3.6 0-4.9 1.4-1.4 3.6-1.4 4.9 0l6.5 6.6 6.5-6.6c1.4-1.4 3.6-1.4 4.9 0 1.6 1.2 1.6 3.4.2 4.8z"/></svg>