<svg xmlns="http://www.w3.org/2000/svg" viewBox="0 0 92 92"><path d="M76 2H16c-2.2 0-4 1.8-4 4v80c0 2.2 1.8 4 4 4h60c2.2 0 4-1.8 4-4V6c0-2.2-1.8-4-4-4zm-4 80H20V10h52v72zM29.5 55.5c0-1.9 1.6-3.5 3.5-3.5h11.8c1.9 0 3.5 1.6 3.5 3.5S46.7 59 44.8 59H33c-2 0-3.5-1.6-3.5-3.5zm.5-16c0-1.9 1.6-3.5 3.5-3.5h23.8c1.9 0 3.5 1.6 3.5 3.5S59.3 43 57.3 43H33.5c-1.9 0-3.5-1.6-3.5-3.5zm0-15c0-1.9 1.6-3.5 3.5-3.5h23.8c1.9 0 3.5 1.6 3.5 3.5S59.3 28 57.3 28H33.5c-1.9 0-3.5-1.6-3.5-3.5zm29.7 28.8c.6.6 1 1.5 1 2.5 0 .9-.4 1.8-1 2.5s-1.6 1-2.5 1-1.8-.4-2.5-1-1-1.5-1-2.5c0-.9.4-1.8 1-2.5 1.3-1.3 3.7-1.3 5 0z"/></svg>