<svg xmlns="http://www.w3.org/2000/svg" viewBox="0 0 92 92"><path d="M90 6v20c0 2.2-1.8 4-4 4s-4-1.8-4-4V15.7L58.8 38.9c-.8.8-1.8 1.2-2.8 1.2-1 0-2-.4-2.8-1.2-1.6-1.6-1.6-4.1 0-5.7L76.3 10H66c-2.2 0-4-1.8-4-4s1.8-4 4-4h20c1.1 0 2.1.4 2.8 1.2.8.7 1.2 1.7 1.2 2.8zm-4 56c-2.2 0-4 1.8-4 4v10.3L59.2 53.7c-1.6-1.6-4.2-1.6-5.8 0-1.6 1.6-1.6 4.1-.1 5.7L75.9 82H65.6c-2.2 0-4 1.8-4 4s1.8 4 4 4h20c1.1 0 2.3-.4 3-1.2C89.4 88 90 87 90 86V66c0-2.2-1.8-4-4-4zm-53.2-8.5L10 76.3V66c0-2.2-1.8-4-4-4s-4 1.8-4 4v20c0 1.1.4 2.1 1.2 2.8C4 89.6 5 90 6.1 90h20c2.2 0 4-1.8 4-4s-1.8-4-4-4H15.7l22.8-22.8c1.6-1.6 1.5-4.1 0-5.7-1.5-1.6-4.1-1.6-5.7 0zM15.7 10.4H26c2.2 0 4-1.8 4-4s-1.8-4-4-4H6c-1.1 0-2.1.4-2.8 1.2C2.4 4.3 2 5.3 2 6.4v20c0 2.2 1.8 4 4 4s4-1.8 4-4V16l23.1 23.1c.8.8 1.8 1.2 2.8 1.2 1 0 2-.4 2.8-1.2 1.6-1.6 1.6-4.1 0-5.7l-23-23z"/></svg>