<svg xmlns="http://www.w3.org/2000/svg" viewBox="0 0 92 92"><path d="M89.6 4.1C88.9 2.8 87.5 2 86.1 2H5.9c-1.4 0-2.8.8-3.5 2.1-.7 1.3-.4 2.9.4 4.1L34 54v30.3c0 3.1 2.1 5.7 5.3 5.7h13.4c3.1 0 5.3-2.5 5.3-5.7V54L89.2 8.2c.8-1.2 1.1-2.8.4-4.1zM50.9 50.6c-.5.6-.9 1.4-.9 2.2V82h-8V52.8c0-.8-.4-1.6-.9-2.2l-9.5-13.9c2-.6 4.4-1.2 7-1.1 3.1 0 5.2.6 7.5 1.2 2.4.6 4.8 1.2 8.2 1.3 2 0 3.8-.1 5.4-.3l-8.8 12.8zm14.6-21.4c-.1 0-4.3 1.9-11.2 1.8-2.5 0-4.4-.5-6.5-1.1-2.4-.6-5.2-1.3-9.2-1.4-4.5 0-8.5 1.1-11.2 2.1L13.5 10h65.1L65.5 29.2zm-8.2-6.6c-.7-.7-1.2-1.8-1.2-2.8 0-1.1.4-2.1 1.2-2.8.7-.7 1.8-1.2 2.8-1.2 1.1 0 2.1.4 2.8 1.2.7.8 1.2 1.8 1.2 2.8 0 1.1-.4 2.1-1.2 2.8-.8.7-1.8 1.2-2.8 1.2-1 0-2.1-.5-2.8-1.2z"/></svg>