<svg xmlns="http://www.w3.org/2000/svg" viewBox="0 0 92 92"><path d="M86.8.1c-1.9-.4-3.8.6-4.5 2.4C81.2 5 70.6 16 61.5 16.4c-5.2.2-10-3.4-15.1-7.2C39.8 4.4 32.5-1 23.1.8 9.2 3.4 2.7 15.9 2.4 16.5c-.4.8-.5 1.8-.3 2.7l4 17.9L17.8 89c.4 1.9 2.1 3.1 3.9 3.1.3 0 .6 0 .9-.1 2.2-.5 3.5-2.6 3-4.8l-6.8-30.3c1.8-2.8 6.9-9.7 14.9-11.5 4.8-1.1 8.6.2 13 1.6 4.9 1.6 10.5 3.5 17.7 1.9C79.5 45.4 89.7 27.4 90 4 90 2.1 88.7.5 86.8.1zm-24.2 41c-5 1.1-8.9-.2-13.4-1.7-4.9-1.6-10.4-3.5-17.3-1.9C25.1 39 20 43 16.5 46.8l-.4-1.8-5.9-26c1.7-2.6 6.4-8.8 14.3-10.3 6-1.1 11.1 2.6 17 7 5.7 4.2 12.3 9 20.2 8.7 6.7-.3 13.6-4.2 19-8.6-2.3 12-8.2 23-18.1 25.3z"/></svg>