<svg xmlns="http://www.w3.org/2000/svg" viewBox="0 0 92 92"><path d="M13 75c-.3 0-.7 0-1-.1-1.8-.5-3-2-3-3.9 0-.6.1-15.9 11.5-27.3 7.3-7.3 17.3-11.3 29.9-12V21c0-1.6 1-3.1 2.5-3.7 1.5-.6 3.2-.3 4.4.9l24.6 25c1.5 1.6 1.5 4.1 0 5.6l-24.6 25c-1.1 1.2-2.9 1.5-4.4.9-1.5-.6-2.5-2.1-2.5-3.7V60.2c-8-.2-27 .6-33.9 12.8-.7 1.2-2.1 2-3.5 2zm35.2-22.9c3.7 0 6.3.3 6.6.3 2 .2 3.6 1.9 3.6 4v4.8l15-15.2-15-15.2v4.8c0 2.2-1.8 4-4 4-12.3 0-21.8 3.3-28.2 9.8-2.9 2.9-4.9 6.2-6.3 9.3 9.3-5.6 21.1-6.6 28.3-6.6z"/></svg>