<svg xmlns="http://www.w3.org/2000/svg" viewBox="0 0 92 92"><path d="M46 65.3c-10.6 0-19.3-8.6-19.3-19.3 0-10.6 8.6-19.3 19.3-19.3 10.6 0 19.3 8.6 19.3 19.3 0 10.6-8.7 19.3-19.3 19.3zm0-31.5c-6.7 0-12.2 5.5-12.2 12.2 0 6.7 5.5 12.2 12.2 12.2 6.7 0 12.2-5.5 12.2-12.2 0-6.7-5.5-12.2-12.2-12.2zM46 92h-.5c-3.5 0-6.5-.4-6.7-.4-1.6-.2-2.8-1.4-3.1-3l-1-7.2c-2.2-.7-4.3-1.6-6.3-2.7L22.8 83c-1.3 1-3 .9-4.3 0-.1-.1-2.5-2-5-4.4l-.4-.4c-2.5-2.5-4.3-4.9-4.4-5-1-1.3-1-3 0-4.3l4.4-5.8c-1.1-2-1.9-4.2-2.6-6.4l-7-1c-1.6-.2-2.8-1.5-3-3.1-.1-.1-.5-3.1-.5-6.6v-.5c0-3.5.4-6.5.4-6.7.2-1.6 1.4-2.8 3-3.1l7.2-1c.7-2.2 1.6-4.3 2.7-6.3L9 22.8c-1-1.3-.9-3 0-4.3.1-.1 2-2.5 4.4-5l.4-.4c2.5-2.5 4.9-4.3 5-4.4 1.3-1 3-1 4.3 0l5.8 4.4c2-1.1 4.2-1.9 6.4-2.6l1-7c.2-1.6 1.5-2.8 3.1-3C39.5.4 42.5 0 46 0h.5c3.5 0 6.5.4 6.7.4 1.6.2 2.8 1.4 3.1 3l1 7.2c2.2.7 4.3 1.6 6.3 2.7L69.2 9c1.3-1 3-.9 4.3 0 .1.1 2.5 2 5 4.4l.4.4c2.5 2.5 4.3 4.9 4.4 5 1 1.3 1 3 0 4.3L79 28.9c1.1 2 1.9 4.2 2.6 6.4l7 1c1.6.2 2.8 1.5 3 3.1 0 .1.4 3.2.4 6.7v.5c0 3.5-.4 6.5-.4 6.7-.2 1.6-1.4 2.8-3 3.1l-7.2 1c-.7 2.2-1.6 4.3-2.7 6.3l4.3 5.7c1 1.3.9 3 0 4.3-.1.1-2 2.5-4.4 5l-.4.4c-2.5 2.5-4.9 4.3-5 4.4-1.3 1-3 1-4.3 0L63.1 79c-2 1.1-4.2 1.9-6.4 2.6l-1 7c-.2 1.6-1.5 2.8-3.1 3-.1 0-3.1.4-6.6.4zm-3.6-7.2c.9.1 2 .1 3.1.1h.5c1.1 0 2.2 0 3.1-.1l.9-6.6c.2-1.5 1.3-2.6 2.7-3 3.1-.7 6.1-1.9 8.8-3.6.8-.5 1.8-.6 2.7-.4.5.1 1 .4 1.4.7l5.3 4c.7-.6 1.5-1.3 2.3-2.1l.4-.4c.8-.8 1.5-1.6 2.1-2.3l-4-5.3c-.9-1.2-.9-2.8-.2-4 1.7-2.6 2.9-5.5 3.6-8.5.3-1.5 1.5-2.7 3-2.9l6.7-.9c.1-.9.1-2 .1-3.1V46c0-1.1 0-2.2-.1-3.1l-6.6-.9c-1.4-.2-2.6-1.3-3-2.7-.7-3.1-1.9-6-3.5-8.7-.2-.2-.3-.5-.4-.8-.4-1.1-.2-2.4.5-3.3l4.1-5.4c-.6-.7-1.3-1.5-2.1-2.3l-.4-.4c-.8-.8-1.6-1.5-2.3-2.1l-5.3 4c-1.3.9-3 .9-4.2 0-2.6-1.6-5.5-2.8-8.5-3.6-1.4-.3-2.5-1.5-2.7-3L49.5 7c-.9-.1-2-.1-3.1-.1H46c-1.1 0-2.2 0-3.1.1l-.9 6.8c-.2 1.6-1.4 2.8-3 3-3 .7-5.9 1.9-8.5 3.5-.8.5-1.8.6-2.7.4-.5-.1-1-.4-1.4-.7l-5.2-4c-.7.6-1.5 1.3-2.3 2.1l-.4.4c-.8.8-1.5 1.6-2.1 2.3l4 5.3c.9 1.2.9 2.7.2 4-.1.1-.1.2-.2.3-1.6 2.6-2.8 5.5-3.5 8.5-.3 1.4-1.5 2.5-3 2.7l-6.7.9c-.1.9-.1 2-.1 3.1v.4c0 1.1 0 2.2.1 3.1l6.6.9c1.6.2 2.8 1.4 3 3v.1c.7 3 1.9 5.8 3.5 8.4.5.9.7 2 .3 3-.1.4-.4.8-.7 1.2L16 70.9c.6.7 1.3 1.5 2.1 2.3l.4.4c.8.8 1.6 1.5 2.3 2.1l5.3-4c1.3-1 3.2-.9 4.4.1 2.6 1.6 5.4 2.7 8.3 3.5 1.4.3 2.5 1.5 2.7 3l.9 6.5z"/></svg>