<svg xmlns="http://www.w3.org/2000/svg" viewBox="0 0 92 92"><path d="M89.6 31.5l-42-18.9c-1.1-.5-2.3-.5-3.3 0l-42 18.9c-1.3.7-2.3 2-2.3 3.6 0 1.5 1 2.9 2.4 3.6L6 40.4v14c0 1.4 1.1 2.5 2.5 2.5s2.5-1.1 2.5-2.5V43l6 3.2v17c0 .7.2 1.3.6 1.9.4.6 9.5 14.2 27.9 14.2 18.9 0 27.6-13.7 28-14.2.3-.5.6-1.2.6-1.8V46.7L90 38.6c1.4-.7 2.2-2.1 2.2-3.6-.2-1.5-1.2-2.8-2.6-3.5zM67 62.1c-2 2.4-8.8 10.2-21.5 10.2-12.4 0-19.5-7.7-21.5-10.2V49.7L44.2 60c.6.3 1.2.4 1.8.4s1.3-.1 1.9-.4L67 50.3v11.8zM46 52L13.2 35.4 46 20.6l32.8 14.8L46 52zm-35 8.3c.7.7 1.2 1.8 1.2 2.8 0 1-.4 2.1-1.2 2.8-.7.7-1.8 1.2-2.8 1.2s-2.1-.4-2.8-1.2c-.7-.7-1.2-1.8-1.2-2.8 0-1 .4-2.1 1.2-2.8.7-.7 1.8-1.2 2.8-1.2s2 .4 2.8 1.2z"/></svg>