<svg xmlns="http://www.w3.org/2000/svg" viewBox="0 0 92 92"><path d="M89 42.8l-.1 25.3c0 2.2-1.8 3.9-4 3.9s-4-1.7-4-3.9l.1-25.3c0-9.3-3.6-18-10.2-24.6C64.2 11.7 55.5 8 46.1 8H46C26.8 8 11.1 23.5 11 42.6V68c0 2.2-1.8 4-4 4s-4-1.8-4-4l.1-25.4C3.1 19.1 22.4 0 46 0h.1c11.5 0 22.3 4.5 30.3 12.6C84.6 20.7 89 31.4 89 42.8zm-52.4 2.1c.7.7 1 1.4 1 2.3l-.1 40.5c0 1.9-1.6 3.3-3.5 3.3-13.2 0-17.5-7.6-18-11.8v-23-.4c.5-4.1 4.9-11.8 18-11.8h.1c.9 0 1.8.2 2.5.9zm-6 6.2c-6.3 1-7.4 4.7-7.6 5.4l-.1 22.3c.2.8 1.3 4.4 7.6 5.4l.1-33.1zm45.5 5.1l.1 22.7v.3c-.5 4.1-4.8 11.8-18 11.8-1.9 0-3.5-1.3-3.5-3.3l-.1-40.3c0-.9.4-1.8 1-2.4.7-.7 1.5-1 2.5-1h.1c13.1 0 17.5 7.7 18 11.9-.1.1-.1.1-.1.3zm-6.9 22.6l-.1-22.3c-.2-.8-1.3-4.4-7.6-5.4l.1 33.1c6.4-1.1 7.4-4.7 7.6-5.4z"/></svg>