<svg xmlns="http://www.w3.org/2000/svg" viewBox="0 0 92 92"><path d="M86.7 22C82.7 12.9 74 7 64.8 7c-9.3 0-15.3 4.1-18.8 8.5C42.5 11.1 36.5 7 27.2 7 18 7 9.3 12.9 5.3 22 1 31.5 2.8 42 10.2 50.2c17.5 19.7 33 33.6 33.2 33.7.8.7 1.7 1 2.7 1s1.9-.3 2.7-1c.2-.1 15.6-14.1 33.2-33.7 7.2-8.2 9-18.7 4.7-28.2zM75.9 44.9C62.9 59.4 51.1 70.8 46 75.6c-5.1-4.8-16.9-16.1-29.9-30.7-5.2-5.9-6.5-13-3.6-19.7C15.3 19.1 21.2 15 27.2 15c11.9 0 14.6 8.9 14.9 10 .4 1.8 2 3 3.8 3 1.8 0 3.4-1.3 3.9-3 .3-1 3-10 14.9-10 6 0 11.9 4.1 14.7 10.3 3 6.6 1.7 13.7-3.5 19.6zm-1-11.6c.1 1.9-1.3 3.6-3.3 3.7h-.2c-1.8 0-3.4-1.4-3.5-3.3-.4-5.7-4.1-6.6-4.8-6.7-1.9-.3-3.2-2-3-3.9.3-1.9 2.1-3.2 4-3 3.5.5 10.2 3.9 10.8 13.2zm-4.8 5.8c.7.8 1.2 1.8 1.2 2.8 0 1.1-.4 2.1-1.2 2.8-.7.8-1.8 1.2-2.8 1.2-1 0-2.1-.4-2.8-1.2-.7-.7-1.2-1.8-1.2-2.8 0-1 .4-2.1 1.2-2.8.7-.7 1.8-1.2 2.8-1.2 1 .1 2 .5 2.8 1.2z"/></svg>