<svg xmlns="http://www.w3.org/2000/svg" viewBox="0 0 92 92"><path d="M78 82h-4V71.5c0-5.8-5.8-10.7-11.4-15.5-1.9-1.6-4.6-4-5.6-5.2v-9.7c1-1.1 3.7-3.6 5.6-5.2C68.2 31.2 74 26.3 74 20.5V10h4c2.2 0 4-1.8 4-4s-1.8-4-4-4H14c-2.2 0-4 1.8-4 4s1.8 4 4 4h4v10.5c0 5.8 5.8 10.7 11.4 15.5 1.9 1.6 4.6 4.1 5.6 5.2v9.7c-1 1.1-3.7 3.6-5.6 5.2C23.8 60.8 18 65.7 18 71.5V82h-4c-2.2 0-4 1.8-4 4s1.8 4 4 4h64c2.2 0 4-1.8 4-4s-1.8-4-4-4zM26 71.5c0-2.1 5.6-6.9 8.6-9.4C39.4 58 43 55 43 51.3V40.7c0-3.8-3.6-6.8-8.4-10.9-3-2.5-8.6-7.2-8.6-9.4V10h40v10.5c0 2.1-5.6 6.9-8.6 9.4C52.6 34 49 37 49 40.7v10.5c0 3.8 3.6 6.8 8.4 10.9 3 2.5 8.6 7.2 8.6 9.4V82H26V71.5zM55 19v-2c0-1.9 1.6-3.5 3.5-3.5S62 15 62 17v2c0 1.9-1.6 3.5-3.5 3.5S55 20.9 55 19z"/></svg>