<svg xmlns="http://www.w3.org/2000/svg" viewBox="0 0 92 92"><path d="M46 0C29.6 0 16 13.6 16 30.3c0 10.2 4 18.4 12 23.9V64c0 1.1.7 2.2 1.5 2.9.7.7 1.8 1.1 2.8 1.1h.4l27.5-2.2c2.1-.2 3.9-1.9 3.9-4v-7.5c7-5.1 12-13.9 12-24C76 13.6 62.4 0 46 0zm12 48.5c-1.3.7-2 2.1-2 3.5v6.1l-20 1.6V52c0-1.4-.6-2.7-1.8-3.5-6.9-4-10.1-10-10.1-18.2C24 18 33.9 8 46 8s22 10 22 22.3c-.1 8-3.7 14.8-10 18.2zm5.6 25.8c.2 2.2-1.5 4.1-3.7 4.3l-27.3 2h-.3c-2.1 0-3.8-1.6-4-3.7-.2-2.2 1.5-4.1 3.7-4.3l27.3-2c2.3-.2 4.2 1.5 4.3 3.7zm-8.7 12.6c.2 2.2-1.5 4.1-3.7 4.3l-9.8.8h-.3c-2.1 0-3.8-1.6-4-3.7-.2-2.2 1.5-4.1 3.7-4.3l9.9-.8c2.2-.1 4.1 1.5 4.2 3.7zm7-56.7c-.2 1.8-1.7 3.2-3.5 3.2h-.3c-1.9-.2-3.3-1.9-3.1-3.8.6-5.7-4.4-7.8-5-8-1.8-.7-2.7-2.7-2.1-4.5.6-1.8 2.6-2.8 4.4-2.1 3.7 1.3 10.5 6.2 9.6 15.2z"/></svg>