<svg xmlns="http://www.w3.org/2000/svg" viewBox="0 0 92 92"><path d="M37.2 48c0 2.2-1.8 4-4 4l-6.2.2c-1 0-1.9-.3-2.6-1L1.2 27.8C.4 27 0 26 0 24.9c0-1.1.4-2.1 1.2-2.8L22.1 1.2c1.6-1.6 4.1-1.6 5.7 0l23.4 23.4c1.6 1.6 1.6 4.1 0 5.6-1.6 1.6-4.1 1.5-5.7 0L24.9 9.6 9.7 24.8 29 44h4.1c2.3 0 4.1 1.8 4.1 4zm53.6 16.2L67.6 40.9c-.8-.8-1.6-1-2.6-1l-6.2.1c-2.2 0-4 1.8-4 4s1.8 4 4 4H63l19.4 19.2-15.3 15.2-20.6-20.6c-1.6-1.6-4.1-1.6-5.7 0-1.6 1.6-1.6 4.1 0 5.6l23.4 23.4c.8.8 1.8 1.2 2.9 1.2 1 0 2-.4 2.8-1.2l20.9-20.9c.8-.7 1.2-1.8 1.2-2.8 0-1.1-.4-2.1-1.2-2.9zM61 22.7c2.2 0 4-1.8 4-4v-10c0-2.2-1.8-4-4-4s-4 1.8-4 4v10c0 2.2 1.8 4 4 4zM72.7 35h10c2.2 0 4-1.8 4-4s-1.8-4-4-4h-10c-2.2 0-4 1.8-4 4s1.8 4 4 4zM31 68.7c-2.2 0-4 1.8-4 4v10c0 2.2 1.8 4 4 4s4-1.8 4-4v-10c0-2.2-1.8-4-4-4zM18.7 57h-10c-2.2 0-4 1.8-4 4s1.8 4 4 4h10c2.2 0 4-1.8 4-4s-1.8-4-4-4z"/></svg>