<svg xmlns="http://www.w3.org/2000/svg" viewBox="0 0 92 92"><path d="M90.8 63.9L67 40.1c-1.6-1.6-4.1-1.6-5.7 0l-7.8 7.8-9.4-9.4 7.8-7.8c1.6-1.6 1.6-4.1 0-5.7L28.1 1.2c-1.6-1.6-4.1-1.6-5.7 0L1.2 22.5c-.8.7-1.2 1.7-1.2 2.8 0 1.1.4 2.1 1.2 2.8L25 51.9c.8.8 1.8 1.2 2.8 1.2 1 0 2-.4 2.8-1.2l7.8-7.8 9.4 9.4-7.8 7.8c-1.6 1.6-1.6 4.1 0 5.7l23.8 23.8c.8.8 1.8 1.2 2.8 1.2 1.1 0 2.1-.4 2.8-1.2l21.3-21.3c1.7-1.5 1.7-4.1.1-5.6zm-63-20.5L9.7 25.3 25.3 9.7l18.1 18.1-5 5-3-3c-1.6-1.6-4.1-1.6-5.7 0-1.6 1.6-1.6 4.1 0 5.7l3 3-4.9 4.9zm38.9 38.9L48.6 64.2l5-5 3 3c.8.8 1.8 1.2 2.8 1.2 1 0 2-.4 2.8-1.2 1.6-1.6 1.6-4.1 0-5.7l-3-3 5-5 18.1 18.1-15.6 15.7z"/></svg>