<svg xmlns="http://www.w3.org/2000/svg" viewBox="0 0 92 92"><path d="M68.4 7.9C62.7 2.8 54.7 0 46 0S29.3 2.8 23.6 7.9C16.6 14.1 13 23.4 13 35c0 25.1 28.9 54.6 30.2 55.8.8.8 1.8 1.2 2.8 1.2s2.1-.4 2.8-1.2C50.1 89.6 79 60.1 79 35c0-11.6-3.6-20.9-10.6-27.1zM46 82.1c-2.7-3-7-8-11.2-14C25.8 55.3 21 43.9 21 35 21 10 40.1 8 46 8c23.2 0 25 20.7 25 27 0 17.6-17.9 39.3-25 47.1zm0-64.8c-8.8 0-15.9 7.3-15.9 16.2S37.2 49.6 46 49.6s15.9-7.3 15.9-16.2S54.8 17.3 46 17.3zm0 25.3c-4.9 0-8.9-4.1-8.9-9.2s4-9.2 8.9-9.2 8.9 4.1 8.9 9.2-4 9.2-8.9 9.2z"/></svg>