<svg xmlns="http://www.w3.org/2000/svg" viewBox="0 0 92 92"><path d="M92 22.9v-.4-.3c0-.1-.1-.2-.1-.4 0-.1-.1-.3-.1-.4 0-.1-.1-.2-.2-.3-.1-.1-.1-.3-.2-.4v-.1l-.2-.2-.3-.3c-.1-.1-.2-.2-.3-.2-.1-.1-.2-.2-.3-.2-.1-.1-.2-.1-.3-.2-.1-.1-.2-.1-.3-.2-.1 0-.3-.1-.4-.1-.1 0-.2-.1-.4-.1H3.3c-.1 0-.2.1-.4.1-.1 0-.3.1-.4.1-.1 0-.2.1-.3.2-.1.1-.2.1-.3.2-.1.1-.2.1-.3.2-.1.1-.2.2-.3.2l-.3.3-.2.2v.1c-.1.1-.2.3-.2.4-.1.1-.1.2-.2.3-.1.1-.1.2-.1.4 0 .1-.1.2-.1.4V69c0 2.2 1.8 4 4 4h84c2.2 0 4-1.8 4-4L92 22.9c0 .1 0 0 0 0zM75.9 27L46 49.2 16.1 27h59.8zM8 65V31l35.6 26.4c.7.5 1.5.8 2.4.8s1.7-.3 2.4-.8L84 31v34H8z"/></svg>