<svg xmlns="http://www.w3.org/2000/svg" viewBox="0 0 92 92"><path d="M90.2 14.8L69.1 4.9c-.1 0-.1 0-.1-.1-.1-.1-.3-.1-.4-.1-.1 0-.3-.1-.4-.1h-.8c-.1 0-.3 0-.4.1-.1 0-.3.1-.4.1-.1 0-.1 0-.2.1l-19.7 9.2-19.9-9.2c-.1 0-.1 0-.2-.1s-.3-.1-.4-.1c-.1 0-.3-.1-.4-.1H25c-.1 0-.3 0-.4.1-.1 0-.3.1-.4.1-.1 0-.1 0-.2.1L2.3 14.8C1 15.4 0 16.6 0 18v65c0 1.2.9 2.3 1.9 3 .6.4 1.4.6 2 .6.5 0 1.1-.1 1.6-.3L25.2 77 45 86.2c.2.1.4.2.6.2h.2c.2 0 .4.1.7.1.2 0 .5 0 .7-.1h.2c.2-.1.4-.1.6-.2L67.7 77l19.7 9.2c.5.2 1 .3 1.5.3.7 0 1.1-.2 1.6-.6 1-.7 1.4-1.8 1.4-3V18c.1-1.4-.4-2.6-1.7-3.2zM42 77.5l-13-6.6V13.7l13 6.6v57.2zM7 20.3l14-6.6v57.2L7 77.5V20.3zm43 0l14-6.6v57.2l-14 6.6V20.3zm35 57.2l-14-6.6V13.7l14 6.6v57.2z"/></svg>