<svg xmlns="http://www.w3.org/2000/svg" viewBox="0 0 92 92"><path d="M72.8 24.9L53.4 66.7c-1.7 4.3-4.7 6.8-8 6.8-2.7 0-5-1.4-6.3-3.6-1.4-2.6-1.3-5.8.4-8.5l25.4-40.7c1.3-2 3.9-2.7 6-1.6s2.9 3.6 1.9 5.8zM79.6 37c-1.5-1.6-4-1.7-5.7-.2-1.6 1.5-1.7 4-.2 5.7C80.3 49.7 84 59.1 84 69c0 2.2 1.8 4 4 4s4-1.8 4-4c0-11.9-4.4-23.3-12.4-32zm-30.4-6.6c2.2.2 4.1-1.4 4.3-3.6.2-2.2-1.4-4.1-3.6-4.3-1.3-.1-2.6-.2-3.9-.2-25.4 0-46 21-46 46.8 0 2.2 1.8 4 4 4s4-1.8 4-4c0-21.4 17-38.8 38-38.8 1.1-.1 2.2 0 3.2.1z"/></svg>