<svg xmlns="http://www.w3.org/2000/svg" viewBox="0 0 92 92"><path d="M68.3 88c0 2.2-1.8 4-4.1 4H27.6c-2.3 0-4.1-1.8-4.1-4s1.8-4 4.1-4h14.8v-6.8c0-1.9 1.6-3.5 3.6-3.5s3.6 1.6 3.6 3.5V84h14.7c2.2 0 4 1.8 4 4zm-.9-59c-2 0-3.6 1.6-3.6 3.5v26c0 1.5-.6 2.9-1.6 3.9S59.9 64 58.5 64h-25c-1.4 0-2.7-.6-3.7-1.6-1-1.1-1.6-2.4-1.6-3.9v-26c0-1.9-1.6-3.5-3.6-3.5S21 30.6 21 32.5v26c0 3.3 1.3 6.5 3.6 8.8 2.4 2.4 5.5 3.7 8.9 3.7h25c3.4 0 6.5-1.3 8.9-3.7 2.3-2.4 3.6-5.5 3.6-8.8v-26c0-1.9-1.6-3.5-3.6-3.5zM35.2 56.3c-1.4-1.7-2.2-3.7-2.2-5.7V8.9c0-2 .8-4.1 2.3-5.8C36.9 1.1 39 0 41.1 0h9.7C55.4 0 59 4.8 59 8.8v41.6c0 4-3.6 8.6-8.1 8.6l-9.7.2c-2.2 0-4.4-1-6-2.9zm5.9-5.7c0 .2.3.6.5.8h8.7c.2-.2.5-.6.5-.9V8.8c0-.2-.3-.6-.5-.8h-8.7c-.2.2-.5.7-.5.9v41.7z"/></svg>