<svg xmlns="http://www.w3.org/2000/svg" viewBox="0 0 92 92"><path d="M92 46.3c0 1.1-.4 2.1-1.2 2.8l-14.1 14c-.8.8-1.8 1.1-2.8 1.1-1 0-2.1-.4-2.8-1.2-1.6-1.6-1.5-4.2 0-5.7l7.3-7.4H50v28.4l7.3-7.3c1.6-1.6 4.1-1.5 5.7 0 1.6 1.6 1.5 4.1 0 5.7L48.9 90.8c-.8.8-1.8 1.2-2.9 1.2s-2-.4-2.8-1.2l-14.1-14c-1.6-1.6-1.6-4.1 0-5.7 1.6-1.6 4.1-1.6 5.6 0l7.3 7.3V50H13.7l7.3 7.4c1.6 1.6 1.6 4.2 0 5.8-.8.8-1.8 1.2-2.8 1.2-1 0-2-.4-2.8-1.2L1.2 49.1C.4 48.4 0 47.4 0 46.3s.4-2.1 1.2-2.8l14.1-14.1c1.6-1.6 4.1-1.6 5.7 0 1.6 1.6 1.5 4 0 5.6l-7.3 7H42V13.6l-7.3 7.3c-1.6 1.6-4.1 1.5-5.6 0-1.6-1.6-1.5-4.1 0-5.7l14.1-14c1.6-1.6 4.1-1.6 5.6 0l14.2 14c1.6 1.6 1.6 4.1 0 5.7-.8.8-1.8 1.2-2.8 1.2-1 0-2.1-.4-2.8-1.2L50 13.6V42h28.3L71 34.9c-1.6-1.6-1.6-3.9 0-5.5s4.1-1.6 5.7 0l14.1 14.1c.8.7 1.2 1.7 1.2 2.8z"/></svg>