<svg xmlns="http://www.w3.org/2000/svg" viewBox="0 0 92 92"><path d="M88.9 6.3c0-1.2-.5-2.4-1.5-3.1-.9-.8-2.1-1.1-3.3-.8L33.7 12.6c-1.9.4-3.2 2-3.2 3.9v45.9c-2.8-1.6-6.2-2.5-9.8-2.5-4.6 0-8.9 1.4-12.3 4.2C4.9 67.1 3 70.7 3 75c0 8.5 8 15 17.7 15 4.6 0 8.7-1.2 12-3.9 3.5-2.9 5.2-6.7 5.2-10.9v.1l.3-39.2 42.5-8.6v23.8C78 49.7 74.8 49 71.2 49c-4.6 0-8.9 1.3-12.3 4-3.5 2.9-5.5 6.6-5.5 10.9 0 8.5 8 15.1 17.7 15.1 9.3 0 17-6.1 17.7-14.1v-1.6l.1-57zm-61 73.6C26 81.5 23.5 82 20.7 82c-5.3 0-9.7-3-9.7-7 0-1.8.9-3.4 2.6-4.7 1.9-1.6 4.4-2.2 7.2-2.2 5.3 0 9.8 3.2 9.8 7.2-.1 1.7-1 3.2-2.7 4.6zm10.6-51v-9.1l42.4-8.7v9.1l-42.4 8.7zM71.2 71c-5.3 0-9.8-3.2-9.8-7.2 0-1.8.9-3.3 2.6-4.7 1.9-1.6 4.4-2.1 7.2-2.1 5 0 9.8 2.6 9.8 6.4v1.1c-1 3.8-4.8 6.5-9.8 6.5z"/></svg>