<svg xmlns="http://www.w3.org/2000/svg" viewBox="0 0 92 92"><path d="M65.4 69.6c-4.5 0-8.3 3.4-9.9 6.4H33.7c-1.7 0-2.7-.9-2.7-2.6V51h24.5c1.6 4 5.4 6.5 9.9 6.5 5.9 0 10.7-4.8 10.7-10.6s-4.8-10.6-10.7-10.6c-4.5 0-8.3 2.7-9.9 6.7H31V21.5l-.2-.1c3.9-1.6 6.6-5.4 6.6-9.8C37.4 5.7 32.6 1 26.7 1 20.8.9 16 5.7 16 11.5c0 4.4 2.9 8.3 6.8 9.8l.2.1v52C23 79.5 27.6 84 33.7 84h21.8c1.6 4 5.4 6.9 9.9 6.9 5.9 0 10.7-4.8 10.7-10.6s-4.9-10.7-10.7-10.7zm0-27.3c2.6 0 4.7 2.1 4.7 4.6 0 2.5-2.1 4.6-4.7 4.6s-4.7-2.1-4.7-4.6c0-2.6 2.1-4.6 4.7-4.6zM26.6 6.9c2.6 0 4.7 2.1 4.7 4.6s-2.1 4.6-4.7 4.6-4.7-2.1-4.7-4.6 2.2-4.6 4.7-4.6zm38.8 78.2c-2.6 0-4.7-2.1-4.7-4.6s2.1-4.6 4.7-4.6 4.7 2.1 4.7 4.6-2.2 4.6-4.7 4.6z"/></svg>