<svg xmlns="http://www.w3.org/2000/svg" viewBox="0 0 92 92"><path d="M38.7 11.2C38.7 5.3 34 .5 28.1.5 22.3.5 17 5.3 17 11.2c0 4.5 3 8.3 6 9.9v49.8c-3 1.6-6 5.4-6 9.9 0 5.9 5.1 10.7 10.9 10.7 5.9 0 10.6-4.8 10.6-10.7 0-4.5-2.6-8.3-6.6-9.9V21.1c4.1-1.6 6.8-5.4 6.8-9.9zM28.3 6.6c2.5 0 4.5 2.1 4.5 4.6s-2 4.6-4.5 4.6-4.5-2.1-4.5-4.6 1.9-4.6 4.5-4.6zm0 78.8c-2.5 0-4.5-2.1-4.5-4.6s2-4.6 4.5-4.6 4.5 2.1 4.5 4.6-2 4.6-4.5 4.6zM69 70.9V21.1c3-1.6 6-5.4 6-9.9C75 5.3 69.9.5 64 .5S53.4 5.3 53.4 11.2c0 4.5 2.6 8.3 6.6 9.9v49.8c-4 1.6-6.7 5.4-6.7 9.9 0 5.9 4.7 10.7 10.6 10.7S75 86.7 75 80.8c0-4.5-3-8.3-6-9.9zM63.7 6.6c2.5 0 4.5 2.1 4.5 4.6s-2 4.6-4.5 4.6-4.5-2.1-4.5-4.6 2-4.6 4.5-4.6zm0 78.8c-2.5 0-4.5-2.1-4.5-4.6s2-4.6 4.5-4.6 4.5 2.1 4.5 4.6-1.9 4.6-4.5 4.6z"/></svg>