<svg xmlns="http://www.w3.org/2000/svg" viewBox="0 0 92 92"><path d="M77.1 11.6C77.1 5.8 72.3 1 66.4 1c-5.9 0-10.7 4.8-10.7 10.6 0 4.4 2.7 8.2 6.6 9.8-.1 1.8-1.2 13-16.9 18.7-7.1 2.6-12.4 6.1-15.4 9.7V21.4c4-1.6 6.4-5.4 6.4-9.8C36.4 5.8 31.5 1 25.7 1c-5.9 0-10.5 4.8-10.5 10.6 0 4.4 2.8 8.2 6.8 9.8v49.2c-4 1.6-6.9 5.4-6.9 9.8 0 5.8 4.7 10.6 10.5 10.6 5.9 0 10.8-4.8 10.8-10.6 0-4.4-2.5-8.2-6.5-9.8v-3.2c0-1.1.5-13.3 18.3-19.8 21.2-7.7 22.2-24.2 22.2-26.2 4-1.6 6.7-5.4 6.7-9.8zM25.6 7c2.6 0 4.6 2.1 4.6 4.6s-2.1 4.6-4.6 4.6c-2.6 0-4.6-2.1-4.6-4.6S23 7 25.6 7zm0 78C23 85 21 82.9 21 80.4s2.1-4.6 4.6-4.6c2.6 0 4.6 2.1 4.6 4.6S28.1 85 25.6 85zm40.8-68.8c-2.6 0-4.6-2.1-4.6-4.6S63.9 7 66.4 7C69 7 71 9.1 71 11.6s-2 4.6-4.6 4.6z"/></svg>