<svg xmlns="http://www.w3.org/2000/svg" viewBox="0 0 92 92"><path d="M81.6 3c-1-.6-2.2-.7-3.2-.2l-21.1 9.9-21.2-9.9c-.1 0-.1 0-.2-.1s-.3-.1-.4-.1c-.1 0-.3-.1-.4-.1h-.8c-.1 0-.3 0-.4.1-.1 0-.3.1-.4.1-.1 0-.1 0-.2.1l-23 10.6C9 14 8 15.2 8 16.6V86c0 1.2.9 2.3 1.9 3 .6.4 1.3.5 2 .5.5 0 1.1-.1 1.5-.3l21.2-9.9 21.2 9.9c.2.1.4.2.6.2h.2c.2 0 .4.1.7.1s.4 0 .7-.1h.2c.2-.1.4-.1.6-.2l22.4-10.6c1.2-.6 1.8-1.8 1.8-3.2V6c0-1.2-.4-2.3-1.4-3zM54 80.5l-16-7.3V11.5l16 7.3v61.7zM15 18.8l16-7.3v61.7l-16 7.3V18.8zm61 54.4l-15 7.3V18.8l15-7.3v61.7z"/></svg>