<svg xmlns="http://www.w3.org/2000/svg" viewBox="0 0 92 92"><path d="M85 36.6c1.4 1.4 1.4 3.6 0 5L45.2 81.3C38.6 88 31.1 91.5 23.9 91.5c-1.8 0-3.6-.2-5.4-.7-7-1.9-12.4-7.3-14.3-14.6-2.4-9 .8-18.8 8.9-26.9L57.5 5c7.2-7.2 17.2-4.9 23 .9 7.9 7.9 5.7 17.2.4 22.5L36.2 73c-5.9 5.9-12.6 5.5-16 2-3.4-3.5-3.8-10 2.1-16l30.2-30.2c1.4-1.4 3.6-1.4 5 0s1.4 3.6 0 5L27.1 64c-2.6 2.6-3 5.1-2.1 6.1 1 1 3.5.6 6.1-2l44.7-44.7c4.5-4.5 2.6-9.6-.4-12.6-3.4-3.4-8.9-5.1-13.1-.8L18.1 54.3c-6.3 6.3-8.9 13.6-7.1 20.1 1.3 4.8 4.8 8.4 9.4 9.6 6.2 1.7 13.3-1.1 19.9-7.7l39.8-39.8c1.3-1.2 3.5-1.2 4.9.1z"/></svg>