<svg xmlns="http://www.w3.org/2000/svg" viewBox="0 0 92 92"><path d="M88.5 12.5l-.2-.2-10.8-9.4C76 1.5 74 .8 71.8 1c-1.9.2-3.8 1-5.2 2.4l-.3.3-10.6 13.4c-2.8 3-2.7 7.6.2 10.5.2.2.4.4.6.5l5.4 3.6c-.4 1.9-3.2 7.3-13.1 17.2-9.8 9.8-15.3 12.6-17.1 13l-3.6-5.4c-.1-.2-.3-.4-.5-.6-2.9-2.9-7.6-2.9-10.5-.2L3.8 66.3l-.3.3c-3 3-3.2 8-.5 10.9l9.4 10.7.2.2c1.8 1.8 4.6 2.5 7.7 2.5 5.5 0 11.8-2.2 15.1-3.5 6.4-2.5 18.9-8.6 31.3-21 9.2-9.2 16.6-20.3 21-31.3 1.8-5 6-17.4.8-22.6zM60.9 60.9C42.4 79.4 21.6 84.5 18.1 82.8L9 72.3 22 62l3.5 5.3c.1.1.1.2.2.3 1.2 1.5 2.9 2.3 4.9 2.4 1.9.1 7.8.4 23.7-15.5 3.9-3.9 15.9-15.9 15.5-23.7-.1-2-1-3.7-2.4-4.9-.1-.1-.2-.2-.3-.2L62 22.1 72.3 9l10.4 9.1c1.8 3.5-3.3 24.3-21.8 42.8z"/></svg>