<svg xmlns="http://www.w3.org/2000/svg" viewBox="0 0 92 92"><path d="M83.1 8.9C78.7 4.4 72.8 2 66.5 2S54.4 4.4 49.9 8.9l-41 41C4.4 54.4 2 60.3 2 66.5s2.4 12.2 6.9 16.6c4.4 4.4 10.3 6.9 16.6 6.9s12.2-2.4 16.6-6.9L83.2 42c4.4-4.4 6.9-10.3 6.9-16.6s-2.5-12.1-7-16.5zM36.4 77.5c-2.9 2.9-6.8 4.5-10.9 4.5s-8-1.6-10.9-4.5c-2.9-2.9-4.5-6.8-4.5-10.9s1.6-8 4.5-10.9L31.3 39c4.6 3 15.9 11.1 21.9 21.8L36.4 77.5zm41.1-41.1L58.3 55.6c-6.4-10.3-16.6-18.1-22-21.8l19.3-19.3c2.9-2.9 6.8-4.5 10.9-4.5s8 1.6 10.9 4.5c2.9 2.9 4.5 6.8 4.5 10.9s-1.5 8.1-4.4 11zm-20-11.7c1.4 1.4 1.4 3.6 0 5l-4.8 4.8c-.7.7-1.6 1-2.5 1s-1.8-.3-2.5-1c-1.4-1.4-1.4-3.6 0-5l4.8-4.8c1.4-1.4 3.6-1.4 5 0zm8-8.1c.7.7 1.2 1.8 1.2 2.8 0 1-.4 2.1-1.2 2.8-.7.7-1.8 1.2-2.8 1.2-1.1 0-2.1-.4-2.8-1.2-.7-.8-1.2-1.8-1.2-2.8 0-1.1.4-2.1 1.2-2.8.8-.8 1.8-1.2 2.8-1.2 1.1 0 2.1.5 2.8 1.2z"/></svg>