<svg xmlns="http://www.w3.org/2000/svg" viewBox="0 0 92 92"><path d="M91.3 43.8C90.6 42.8 74.4 19 46 19S1.4 42.8.7 43.8c-.9 1.3-.9 3.1 0 4.5C1.4 49.2 17.6 73 46 73s44.6-23.8 45.3-24.8c.9-1.3.9-3.1 0-4.4zM46 65C26.7 65 13.5 51.4 9 46c4.5-5.5 17.6-19 37-19 19.3 0 32.5 13.6 37 19-4.6 5.5-17.7 19-37 19zm2.3-35.4c-4.4-.6-8.7.5-12.3 3.2-7.3 5.5-8.8 15.9-3.3 23.2 2.7 3.6 6.5 5.8 10.9 6.5.8.1 1.6.2 2.3.2 3.6 0 7-1.2 9.9-3.3 7.3-5.5 8.8-15.9 3.3-23.2-2.5-3.7-6.4-6-10.8-6.6zm4 24.9c-2.2 1.7-5 2.4-7.8 2-2.8-.4-5.3-1.9-7-4.1-3.4-4.7-2.5-11.4 2.2-14.9 2.2-1.7 5-2.4 7.8-2 2.8.4 5.3 1.9 7 4.1 3.4 4.7 2.5 11.4-2.2 14.9zM51.9 40c.8.7 1.2 1.8 1.2 2.8 0 1-.4 2.1-1.2 2.8-.7.7-1.8 1.2-2.8 1.2-1.1 0-2.1-.4-2.8-1.2-.8-.8-1.2-1.8-1.2-2.8 0-1.1.4-2.1 1.2-2.8.7-.8 1.8-1.2 2.8-1.2 1.1.1 2.1.5 2.8 1.2z"/></svg>