<svg xmlns="http://www.w3.org/2000/svg" viewBox="0 0 92 92"><path d="M88 17H68V5c0-1.7-.9-3-2.5-3h-39C24.9 2 24 3.3 24 5v12H4c-2.2 0-4 1.7-4 3.9v45.9C0 69 1.8 71 4 71h14.7l-2.4 15.6c-.2 1 .1 2.2.8 3 .7.8 1.6 1.4 2.7 1.4h52.5c1 0 2-.7 2.7-1.5.7-.8 1-1.8.8-2.8L73.3 71H88c2.2 0 4-2 4-4.2V20.9c0-2.2-1.8-3.9-4-3.9zM30 8h32v9H30V8zm-6.2 76l3.8-25h36.8l3.8 25H23.8zM84 63H72.1l-1.3-8.2c-.3-1.7-1.7-2.8-3.5-2.8H24.6c-1.7 0-3.2 1.1-3.5 2.8L19.9 63H8V25h76v38zM18.3 35c0-1.7 1.3-3 3-3h9.4c1.7 0 3 1.3 3 3s-1.3 3-3 3h-9.4c-1.6 0-3-1.3-3-3z"/></svg>