<svg xmlns="http://www.w3.org/2000/svg" viewBox="0 0 92 92"><path d="M80.7 43.7C73.4 36.4 63 32.4 51 31.7V21c0-1.6-1.2-3.1-2.7-3.7-1.5-.6-3.3-.3-4.5.9l-24.7 25c-1.5 1.6-1.6 4.1 0 5.6l24.6 25c1.1 1.2 3.1 1.5 4.6.9 1.5-.6 2.7-2.1 2.7-3.7V60.2c8-.2 26.8.6 33.6 12.8.7 1.3 2 2 3.4 2 .3 0 .6 0 1-.1 1.8-.5 3.1-2 3.1-3.9-.1-.6 0-15.9-11.4-27.3zm-34.4 8.7c-2 .2-3.3 1.9-3.3 4v4.8L28 46l15-15.2v4.8c0 2.2 1.6 4 3.8 4 21.5 0 30.6 10.3 34.5 19.1-14.1-8.4-33.9-6.4-35-6.3zM31.5 68.2c1.5 1.6 1.5 4.1 0 5.7-.8.8-1.8 1.2-2.8 1.2-1 0-2.1-.4-2.8-1.2l-24.6-25c-1.5-1.6-1.5-4.1 0-5.6l24.6-25c1.6-1.6 4.1-1.6 5.6 0 1.6 1.6 1.6 4.1 0 5.7L9.6 46l21.9 22.2z"/></svg>