<svg xmlns="http://www.w3.org/2000/svg" viewBox="0 0 92 92"><path d="M90.8 59.3L78.3 71.7c-.8.8-1.8 1.2-2.8 1.2-1 0-2.1-.4-2.8-1.2L60 59.3c-1.6-1.6-1.6-4.1-.1-5.6 1.6-1.6 4-1.6 5.5 0l5.5 5.7V33h-35c-2.2 0-4-1.8-4-4s1.8-4 4-4h39.5c2.2 0 3.6 1.7 3.6 3.9v30.4l6-5.7c1.6-1.6 4.3-1.5 5.9 0 1.5 1.6 1.5 4.1-.1 5.7zM56.1 65H21V38.5l5.5 5.7c.8.8 1.7 1.2 2.7 1.2 1 0 2-.4 2.8-1.2 1.6-1.6 1.5-4.1 0-5.6L19.4 26.1c-1.6-1.5-4.1-1.5-5.7 0L1.2 38.5c-1.6 1.6-1.6 4.1 0 5.6 1.6 1.6 4.3 1.6 5.9 0l6-5.7v30.4c0 2.2 1.3 4.1 3.6 4.1h39.5c2.2 0 4-1.8 4-4S58.3 65 56.1 65z"/></svg>