<svg xmlns="http://www.w3.org/2000/svg" viewBox="0 0 92 92"><path d="M91.7 3.9C91.5 1.9 90 .4 88 .2c-25.3-2-43.4 10.3-54.7 25.7-6.2-2-12.9-1.3-19 2.1-5.9 3.3-10.8 8.9-14 15.7-.7 1.6-.4 3.4.9 4.6 1.2 1.2 3.1 1.4 4.6.6 6.4-3.4 13.6-2.7 17.9 1.6l17.6 17.6.1.1c4.3 4.3 5 11.5 1.6 17.9-.8 1.5-.5 3.4.6 4.6.8.8 1.8 1.2 2.9 1.2.6 0 1.2-.1 1.7-.4 6.8-3.2 12.4-8.2 15.7-14 3.5-6.1 4.2-12.8 2.1-19.1 4.5-3.3 8.6-6.9 12-10.9C88.6 35.4 93.2 20.7 91.7 3.9zM13.4 38.8c4.3-4.2 9.7-6.8 15.4-5.8-1.6 2.8-2.9 5.6-4.1 8.4-3.4-1.9-7.3-2.8-11.3-2.6zm39.9 39.8c.1-4.1-.8-8-2.6-11.4 2.9-1.2 5.7-2.6 8.4-4.1 1 5.7-1.5 11.2-5.8 15.5zm-8-17.9L31.2 46.6C38.3 27.7 55.9 7.5 84 8c.9 33.5-26.7 48-38.7 52.7zm25.9-39.9c1.2 1.2 1.9 2.9 1.9 4.6s-.7 3.4-1.9 4.6-2.9 1.9-4.6 1.9-3.4-.6-4.6-1.9-1.9-2.9-1.9-4.6.7-3.4 1.9-4.6c1.2-1.2 2.9-1.9 4.6-1.9s3.4.7 4.6 1.9zM14.9 62.4C10.3 67 10.1 76.2 10.1 78c0 2.2 1.8 4 4 4h.1c2.1 0 10.9-.3 15.4-4.8 2.8-2.8 3.4-5.7 3.4-7.6 0-2.7-1.1-5.3-3.2-7.4-5-5.1-11.3-3.5-14.9.2zm9.1 9.1c-1 1-3.2 1.7-5.5 2 .4-2.3 1.1-4.5 2-5.4.7-.7 1.3-1.1 2-1.1.5 0 1.1.3 1.7.9.6.6.9 1.2.9 1.7-.1.6-.6 1.4-1.1 1.9z"/></svg>