<svg xmlns="http://www.w3.org/2000/svg" viewBox="0 0 92 92"><path d="M47.2 63c0 2.2-1.8 4-4 4H4c-2.2 0-4-1.8-4-4s1.8-4 4-4h39.2c2.2 0 4 1.8 4 4zM88 59h-3.4c-2.2 0-4 1.8-4 4s1.8 4 4 4H88c2.2 0 4-1.8 4-4s-1.8-4-4-4zM14.3 28.9c0-6.6 5.4-11.9 12-11.9s12 5.4 12 11.9-5.4 11.9-12 11.9-12-5.3-12-11.9zm8 0c0 2.2 1.8 3.9 4 3.9s4-1.8 4-3.9-1.8-3.9-4-3.9-4 1.8-4 3.9zm53.1 34.2c0 6.6-5.4 11.9-12 11.9s-12-5.4-12-11.9 5.4-11.9 12-11.9c6.6-.1 12 5.3 12 11.9zm-8 0c0-2.2-1.8-3.9-4-3.9s-4 1.8-4 3.9 1.8 3.9 4 3.9 4-1.8 4-3.9zM4 33h2.3c2.2 0 4-1.8 4-4s-1.8-4-4-4H4c-2.2 0-4 1.8-4 4s1.8 4 4 4zm88-4c0-2.2-1.8-4-4-4H47.3c-2.2 0-4 1.8-4 4s1.8 4 4 4H88c2.2 0 4-1.8 4-4z"/></svg>