<svg xmlns="http://www.w3.org/2000/svg" viewBox="0 0 92 92"><path d="M82.9 58.1L65.1 75.9c-.9.9-2 1.3-3.2 1.3-1.1 0-2.3-.4-3.2-1.3-1.7-1.7-1.8-4.6 0-6.3l10.2-10.2H12c-1.2 0-2.5-.5-3.3-1.3-.9-.8-1.7-2-1.7-3.1V32.2c0-2.5 2-4.5 4.5-4.5s4.5 2 4.5 4.5v18.3h52.6l-9.9-10.2c-1.7-1.7-1.7-4.6 0-6.3 1.7-1.7 4.6-1.7 6.3 0l17.8 17.8c1.9 1.8 1.9 4.6.1 6.3zM12.2 24.2c1.3 0 2.6-.5 3.5-1.4.9-.9 1.5-2.2 1.5-3.5 0-1.3-.5-2.6-1.5-3.5-.9-.9-2.2-1.4-3.5-1.4-1.3 0-2.6.5-3.5 1.4-.9.9-1.5 2.2-1.5 3.5 0 1.3.5 2.6 1.5 3.5.9.8 2.2 1.4 3.5 1.4z"/></svg>