<svg xmlns="http://www.w3.org/2000/svg" viewBox="0 0 92 92"><path d="M81 16.1C81 5.5 63.4 0 46 0S11 5.5 11 16.1v60.3C11 86.6 28.6 92 46 92s35-5.4 35-15.7V16.5v-.1-.3zm-8 30.3c0 2.2-9.5 7.7-27 7.7s-27-5.4-27-7.7V26.7c6.8 3.6 16.9 5.5 27 5.5s20.2-1.9 27-5.5v19.7zM46 8c17.8 0 27 5.7 27 8.1s-9.2 8.1-27 8.1-27-5.7-27-8.1S28.2 8 46 8zm0 76c-17.5 0-27-5.4-27-7.7V56.7c6.8 3.5 16.9 5.3 27 5.3s20.2-1.8 27-5.3v19.6c0 2.3-9.5 7.7-27 7.7zm17-41.1V38c0-1.9 1.6-3.5 3.5-3.5S70 36.1 70 38v4.9c0 1.9-1.6 3.5-3.5 3.5S63 44.9 63 42.9z"/></svg>