<svg xmlns="http://www.w3.org/2000/svg" viewBox="0 0 92 92"><path d="M40 55.5c0-1.9-1.6-3.5-3.5-3.5h-13c-1.9 0-3.5 1.6-3.5 3.5v13c0 1.9 1.6 3.5 3.5 3.5h13c1.9 0 3.5-1.6 3.5-3.5v-13zM27 59h6v6h-6v-6zm63.9-33.6l-8.9-9V6c0-2.2-1.8-4-4.1-4H14.1C11.8 2 10 3.8 10 6v10.4l-8.9 9c-.7.7-1.1 1.7-1.1 2.8v10.2C0 40.6 1.8 42 4 42h84c2.2 0 4-1.4 4-3.7V28.2c0-1.1-.4-2.1-1.1-2.8zM74 10v5H18v-5h56zm10 24H8v-4.2l8.2-7.8h59.6l8.2 7.8V34zm2 16.1V86c0 2.2-1.8 4-4 4H68.3c-2.2 0-4-1.6-4-3.8V65H55v21c0 2.2-1.9 4-4.1 4H10.1C7.9 90 6 88.2 6 86V50.1c0-2.2 1.8-4 4-4s4 1.8 4 4V82h33V60.6c0-2.2 1.7-3.6 3.9-3.6h17.3c2.2 0 3.7 1.4 3.7 3.6V82h6V50.1c0-2.2 1.8-4 4-4s4.1 1.8 4.1 4z"/></svg>