<svg xmlns="http://www.w3.org/2000/svg" viewBox="0 0 92 92"><path d="M88 20H29c-1 0-1.9.4-2.6 1l-25 22c-.9.8-1.4 1.9-1.4 3 0 1.2.5 2.2 1.4 3l25 22c.7.6 1.7 1 2.6 1h59c2.2 0 4-1.8 4-4V24c0-2.2-1.8-4-4-4zm-4 44H30.5L10.1 46l20.5-18H84v36zM44.1 51.4l5.4-5.4-5.4-5.4c-1.4-1.4-1.4-3.6 0-4.9 1.4-1.4 3.6-1.4 4.9 0l5.4 5.4 5.4-5.4c1.4-1.4 3.6-1.4 4.9 0 1.4 1.4 1.4 3.6 0 4.9L59.4 46l5.4 5.4c1.4 1.4 1.4 3.6 0 4.9-.7.7-1.6 1-2.5 1s-1.8-.3-2.5-1l-5.4-5.4-5.4 5.4c-.7.7-1.6 1-2.5 1-.9 0-1.8-.3-2.5-1-1.2-1.3-1.2-3.5.1-4.9z"/></svg>