<svg xmlns="http://www.w3.org/2000/svg" viewBox="0 0 92 92"><path d="M75.2 51.6c0-1.1-.4-2.1-1.2-2.8L36.7 12c-.7-.7-1.6-1.1-2.6-1.1L4.3 9c-1.2-.1-2.3.4-3.1 1.2-.8.8-1.3 1.9-1.2 3.1l1.9 29.3c.1 1 .5 1.9 1.2 2.6l37.4 36.7c.8.8 1.8 1.2 2.8 1.2 1 0 2-.4 2.8-1.2L74 54.4c.8-.7 1.2-1.7 1.2-2.8zM43.3 73.4L9.9 40.5 8.3 17.3l23.8 1.5 33.4 32.8-22.2 21.8zM26 26.2c1.1 1.1 1.8 2.7 1.8 4.2 0 1.6-.6 3.1-1.8 4.2-1.1 1.1-2.7 1.8-4.3 1.8-1.6 0-3.1-.6-4.3-1.8-1.1-1.1-1.8-2.7-1.8-4.2 0-1.6.6-3.1 1.8-4.2 1.1-1.1 2.7-1.8 4.3-1.8 1.6 0 3.2.7 4.3 1.8zm66 25.4c0 .9-.4 1.8-1 2.5L63.1 81.5c-.7.7-1.6 1-2.5 1-.9 0-1.8-.3-2.5-1-1.4-1.4-1.4-3.6 0-4.9l25.4-24.9-34.9-34.3c-1.4-1.4-1.4-3.6 0-4.9 1.4-1.4 3.6-1.4 5 0L91 49.1c.6.7 1 1.6 1 2.5z"/></svg>