<svg xmlns="http://www.w3.org/2000/svg" viewBox="0 0 92 92"><path d="M59.8 92c-12.4 0-31.9-4.1-36.7-7.5-1.1-.8-1.7-2-1.7-3.3V42.1c0-1.2.6-2.4 1.5-3.1.3-.2 7.3-5.7 14.6-9.8 9.1-5 15.4-12 16.9-16.4C56.2 7.4 58.8 0 67 0c3.9 0 7.1 2.2 8.8 6 3.4 7.8-.2 18.6-6.2 27.1 4 .9 9 2.2 12 3.1 5.5 1.7 9.1 5.7 9.9 10.6.7 5-1.8 10.1-7.1 14-3.9 10.5-10.6 27.1-15.5 29.8-1.9 1-5.2 1.4-9.1 1.4zM29.4 78.8c7.6 3.2 31 6.5 35.4 4.8 2.3-2.1 8.2-15.5 12.3-26.8.3-.8.8-1.5 1.5-2 3.3-2.2 5-4.8 4.7-7-.3-1.8-1.9-3.3-4.3-4.1-5-1.6-17.4-4.3-17.6-4.3-1.4-.3-2.5-1.3-3-2.7s-.1-2.9.9-3.9c9-9.7 10.6-19.6 8.9-23.6C67.8 8 67.3 8 67 8c-2 0-2.9 1.4-5 7.4-2.4 7-10.7 15.4-20.6 20.8-4.8 2.6-9.6 6.1-12 7.9v34.7zm-15.8 2.8v-40c0-3.6-2.9-6.5-6.5-6.5S.5 38 .5 41.6v39.9C.5 85.1 3.4 88 7 88s6.6-2.9 6.6-6.4z"/></svg>