<svg xmlns="http://www.w3.org/2000/svg" viewBox="0 0 92 92"><path d="M27.2 42.2l22.6 22.6c.9.9 2.1 1.4 3.3 1.4 1.2 0 2.4-.5 3.3-1.4l8.4-8.4c.9-.9 1.4-2 1.4-3.3 0-1.2-.5-2.4-1.4-3.3L42.2 27.2c-.9-.9-2-1.4-3.3-1.4-1.2 0-2.4.5-3.3 1.4l-8.4 8.4c-1.8 1.8-1.8 4.8 0 6.6zm11.7-9.8l20.7 20.7-6.5 6.5-20.7-20.7 6.5-6.5zm51.9 23.1L36.5 1.2c-1.6-1.6-4.1-1.6-5.7 0l-7.6 7.6c-1.1 1.1-1.5 2.8-.9 4.3 1.1 2.7.4 5.7-1.6 7.7s-5 2.6-7.7 1.6c-1.5-.6-3.2-.2-4.3.9l-7.6 7.6c-.7.7-1.1 1.8-1.1 2.8 0 1.1.4 2.1 1.2 2.8l54.3 54.3c.8.8 1.8 1.2 2.8 1.2 1.1 0 2.1-.4 2.8-1.2l7.6-7.6c1.1-1.1 1.5-2.8.9-4.3-1.1-2.7-.4-5.7 1.6-7.7s5-2.6 7.7-1.6c1.5.6 3.2.2 4.3-.9l7.6-7.6c1.6-1.6 1.6-4.1 0-5.6zm-11.6 5.9c-4.9-1-10.1.5-13.7 4.2-3.6 3.6-5.1 8.8-4.2 13.7l-3.1 3.1L9.7 33.7l3.1-3.1c4.9 1 10.1-.5 13.7-4.2 3.6-3.6 5.1-8.8 4.2-13.7l3.1-3.1 48.6 48.6-3.2 3.2z"/></svg>