<svg xmlns="http://www.w3.org/2000/svg" viewBox="0 0 92 92"><path d="M92 46c0 21.5-17.4 39-38.8 39-7.9 0-15.5-2.4-22-6.8-1.8-1.3-2.3-3.7-1-5.6 1.3-1.8 3.7-2.3 5.6-1C40.9 75.1 47 77 53.2 77 70.2 77 84 63.1 84 46S70.2 15 53.2 15C36.6 15 23 28.3 22.4 44.9l9.3-9.4c1.6-1.6 4.1-1.6 5.7 0 1.6 1.6 1.6 4.1 0 5.7L22.1 56.5c-.8.8-1.8 1.2-2.8 1.2-1.1 0-2.1-.4-2.8-1.2L1.2 41.1c-1.6-1.6-1.6-4.1 0-5.7 1.6-1.6 4.1-1.6 5.7 0l7.6 7.7C15.9 23 32.7 7 53.2 7 74.6 7 92 24.5 92 46zM53 23.3c-2.2 0-4 1.8-4 4V46c0 1.1.5 2.1 1.3 2.8l8.6 8.6c.8.8 1.8 1.2 2.9 1.2 1 0 2.1-.4 2.8-1.2 1.6-1.6 1.5-4.1-.1-5.7L57 44.3v-17c0-2.2-1.8-4-4-4z"/></svg>