<svg xmlns="http://www.w3.org/2000/svg" viewBox="0 0 92 92"><path d="M84 48.8V88c0 2.2-1.8 4-4 4s-4-1.8-4-4V48.8c0-2.2 1.8-4 4-4s4 1.8 4 4zm-4-37.4c2.2 0 4-1.8 4-4V4c0-2.2-1.8-4-4-4s-4 1.8-4 4v3.4c0 2.2 1.8 4 4 4zM23.9 46c0 6.6-5.4 12-11.9 12S0 52.6 0 46s5.4-12 11.9-12 12 5.4 12 12zm-8 0c0-2.2-1.8-4-3.9-4s-4 1.8-4 4 1.8 4 3.9 4 4-1.8 4-4zm42 19.7c0 6.6-5.4 12-11.9 12s-11.9-5.4-11.9-12 5.4-12 11.9-12 11.9 5.3 11.9 12zm-8 0c0-2.2-1.8-4-3.9-4s-3.9 1.8-3.9 4 1.8 4 3.9 4 3.9-1.8 3.9-4zM92 28.6c0 6.6-5.4 12-11.9 12s-11.9-5.4-11.9-12 5.4-12 11.9-12S92 22 92 28.6zm-8 0c0-2.2-1.8-4-3.9-4s-3.9 1.8-3.9 4 1.8 4 3.9 4 3.9-1.7 3.9-4zM46 81.7c-2.2 0-4 1.8-4 4V88c0 2.2 1.8 4 4 4s4-1.8 4-4v-2.3c0-2.2-1.8-4-4-4zm0-33c2.2 0 4-1.8 4-4V4c0-2.2-1.8-4-4-4s-4 1.8-4 4v40.7c0 2.2 1.8 4 4 4zM12 63.3c-2.2 0-4 1.8-4 4V88c0 2.2 1.8 4 4 4s4-1.8 4-4V67.3c0-2.2-1.8-4-4-4zm0-34.4c2.2 0 4-1.8 4-4V4c0-2.2-1.8-4-4-4S8 1.8 8 4v20.9c0 2.2 1.8 4 4 4z"/></svg>