<svg xmlns="http://www.w3.org/2000/svg" viewBox="0 0 92 92"><path d="M62.3 55.5c7.7 0 14-6.3 14-14s-6.3-14-14-14-14 6.3-14 14 6.3 14 14 14zm0-22c4.4 0 8 3.6 8 8s-3.6 8-8 8-8-3.6-8-8 3.6-8 8-8zM15.7 35c0-1.7 1.3-3 3-3h17.4c1.7 0 3 1.3 3 3s-1.3 3-3 3H18.7c-1.7 0-3-1.3-3-3zm20.4 14H18.7c-1.7 0-3-1.3-3-3s1.3-3 3-3h17.4c1.7 0 3 1.3 3 3s-1.3 3-3 3zm-4.4 8c0 1.7-1.3 3-3 3h-10c-1.7 0-3-1.3-3-3s1.3-3 3-3h10.1c1.6 0 2.9 1.3 2.9 3zM92 22.6c0-3.6-3-6.6-6.6-6.6H6.6C3 16 0 19 0 22.6v46.8C0 73 3 76 6.6 76h78.8c3.6 0 6.6-3 6.6-6.6V22.6zM8 24h76v41.7c-4.3-4.2-11.7-7-14.6-8-.6-.2-1.3-.2-2 0l-5.1 1.8-5.1-1.8c-.6-.2-1.3-.1-2 .1C51.9 58.9 42.5 62 38.9 68H8V24zm39.7 44c2.3-2 5.3-3 8.5-4.2l5.1 1.8c.6.2 1.4.2 2 0l5.1-1.7c3.2 1.2 6.2 2.2 8.5 4.2H47.7z"/></svg>