<svg xmlns="http://www.w3.org/2000/svg" viewBox="0 0 92 92"><path d="M35.4 54.3c11.7 0 21.2-9.5 21.2-21.1 0-11.7-9.5-21.1-21.2-21.1s-21.2 9.5-21.2 21.1c.1 11.6 9.6 21.1 21.2 21.1zm0-34.3c7.3 0 13.2 5.9 13.2 13.1 0 7.2-5.9 13.1-13.2 13.1s-13.2-5.9-13.2-13.1c.1-7.2 6-13.1 13.2-13.1zM45 56.2c-1.1-.3-2.3-.2-3.3.4l-6.3 3.8-6.3-3.8c-1-.6-2.2-.7-3.3-.4C19.7 58.2 0 65.3 0 76c0 2.2 1.8 4 4 4h62.8c2.2 0 4-1.8 4-4 0-10.7-19.7-17.8-25.8-19.8zM11.2 72c3.4-2.6 9.1-5.4 15.3-7.6l6.8 4.1c1.3.8 2.9.8 4.1 0l6.8-4.1c6.2 2.1 11.9 5 15.3 7.6H11.2zM91 69c0 1.7-1.3 3-3 3H74.6c-1.7 0-3-1.3-3-3s1.3-3 3-3h8.9c-1.5-2-3.9-3.6-6.9-5.2-1.5-.8-2-2.6-1.2-4 .8-1.5 2.6-2 4.1-1.2C83.8 57.9 91 62.8 91 69zM74.2 42.6c0-4.4-3.6-7.9-7.9-7.9-1.1 0-2.1.2-3.1.6-1.5.6-3.3-.1-3.9-1.6-.6-1.5.1-3.3 1.6-3.9 1.7-.7 3.5-1.1 5.4-1.1 7.7 0 13.9 6.2 13.9 13.9s-6.3 13.9-13.9 13.9c-4 0-7.8-1.7-10.4-4.7-1.1-1.2-1-3.1.3-4.2 1.2-1.1 3.1-1 4.2.3 1.5 1.7 3.7 2.7 6 2.7 4.2-.1 7.8-3.7 7.8-8z"/></svg>