<svg xmlns="http://www.w3.org/2000/svg" viewBox="0 0 92 92"><path d="M46 57.1c14.8 0 26.9-12.1 26.9-27C72.9 15.1 60.8 3 46 3S19.1 15.1 19.1 30c0 15 12.1 27.1 26.9 27.1zM46 11c10.4 0 18.9 8.5 18.9 19S56.4 49 46 49s-18.9-8.5-18.9-19S35.6 11 46 11zm12.5 48.7c-1.3-.4-2.8-.1-3.8.8L46 67.9l-8.7-7.4c-1.1-.9-2.5-1.2-3.8-.8C27.9 61.5 0 71.1 0 85c0 2.2 1.8 4 4 4h84c2.2 0 4-1.8 4-4 0-13.9-27.9-23.5-33.5-25.3zM10.1 81c4.4-4.7 15-9.9 23.8-12.9l9.5 8.1c1.5 1.3 3.7 1.3 5.2 0l9.5-8.1c8.8 3.1 19.4 8.3 23.8 12.9H10.1z"/></svg>