<svg xmlns="http://www.w3.org/2000/svg" viewBox="0 0 92 92"><path d="M1 25.4c-1.6-1.9-1.3-4.7.5-6.2 16.1-13.5 32.6-8.8 46.6-2.4 14.8 6.8 26.7 6.1 36.5-2 1.9-1.6 4.7-1.3 6.3.6 1.6 1.9 1.3 4.7-.6 6.2-7 5.8-14.9 8.7-23.6 8.7-6.9 0-14.4-1.8-22.3-5.5-13.8-6.3-25.5-8.6-37.1 1.2-1.9 1.5-4.7 1.3-6.3-.6zm83.7 14.5c-9.8 8.1-21.8 8.7-36.5 2-14-6.4-30.5-11.2-46.6 2.4-1.9 1.6-2.1 4.4-.5 6.2 1.6 1.9 4.4 2.1 6.3.5 11.6-9.7 23.2-7.5 37.1-1.1 7.9 3.6 15.4 5.5 22.3 5.5 8.7 0 16.6-2.9 23.6-8.7 1.9-1.6 2.2-4.4.6-6.2-1.6-1.9-4.4-2.2-6.3-.6zm0 25.1c-9.8 8.1-21.8 8.7-36.5 2-14-6.4-30.5-11.2-46.6 2.4-1.9 1.6-2.1 4.4-.5 6.2 1.6 1.9 4.4 2.1 6.3.5C19 66.4 30.6 68.6 44.5 75c7.9 3.6 15.4 5.5 22.3 5.5 8.7 0 16.6-2.9 23.6-8.7 1.9-1.6 2.2-4.4.6-6.2-1.6-1.9-4.4-2.2-6.3-.6z"/></svg>