<svg xmlns="http://www.w3.org/2000/svg" viewBox="0 0 92 92"><path d="M25.6 14c0-2.8 2.2-5 5-5H86c2.8 0 5 2.2 5 5s-2.2 5-5 5H30.6c-2.8 0-5-2.2-5-5zM86 41H30.6c-2.8 0-5 2.2-5 5s2.2 5 5 5H86c2.8 0 5-2.2 5-5s-2.2-5-5-5zm0 32H30.6c-2.8 0-5 2.2-5 5s2.2 5 5 5H86c2.8 0 5-2.2 5-5s-2.2-5-5-5zM9 39.4c-3.9 0-7 3.2-7 7.1s3.1 7.1 7 7.1 7-3.2 7-7.1-3.2-7.1-7-7.1zM9 7c-3.9 0-7 3.2-7 7.1 0 3.9 3.1 7.1 7 7.1s7-3.2 7-7.1C16 10.2 12.8 7 9 7zm0 63.8c-3.9 0-7 3.2-7 7.1C2 81.8 5.1 85 9 85s7-3.2 7-7.1c0-3.9-3.2-7.1-7-7.1z"/></svg>