<svg xmlns="http://www.w3.org/2000/svg" viewBox="0 0 92 92"><path d="M34.9 40.7H7.6c-3.1 0-5.6-2.5-5.6-5.6V13.6C2 10.5 4.5 8 7.6 8h27.3c3.1 0 5.6 2.5 5.6 5.6v21.5c0 3.1-2.5 5.6-5.6 5.6zm-24.9-8h22.5V16H10v16.7zm74.4 8H57.1c-3.1 0-5.6-2.5-5.6-5.6V13.6c0-3.1 2.5-5.6 5.6-5.6h27.3c3.1 0 5.6 2.5 5.6 5.6v21.5c0 3.1-2.5 5.6-5.6 5.6zm-24.9-8H82V16H59.5v16.7zM34.9 84H7.6C4.5 84 2 81.5 2 78.4V56.9c0-3.1 2.5-5.6 5.6-5.6h27.3c3.1 0 5.6 2.5 5.6 5.6v21.5c0 3.1-2.5 5.6-5.6 5.6zM10 76h22.5V59.3H10V76zm74.4 8H57.1c-3.1 0-5.6-2.5-5.6-5.6V56.9c0-3.1 2.5-5.6 5.6-5.6h27.3c3.1 0 5.6 2.5 5.6 5.6v21.5c0 3.1-2.5 5.6-5.6 5.6zm-24.9-8H82V59.3H59.5V76z"/></svg>