<svg xmlns="http://www.w3.org/2000/svg" viewBox="0 0 92 92"><path d="M20 28c-1.8 0-3.7-.8-5-2.1-1.3-1.3-2-3.1-2-4.9 0-1.8.8-3.6 2-5 1.3-1.3 3.1-2 5-2 1.8 0 3.6.8 4.9 2 1.3 1.3 2.1 3.1 2.1 5 0 1.8-.8 3.6-2.1 4.9-1.3 1.3-3.1 2.1-4.9 2.1zm30.9-2.1c1.3-1.3 2.1-3.1 2.1-4.9 0-1.8-.8-3.6-2.1-5-1.3-1.3-3.1-2-4.9-2-1.8 0-3.7.8-5 2-1.3 1.3-2 3.1-2 5 0 1.8.8 3.6 2 4.9 1.3 1.3 3.1 2.1 5 2.1 1.8 0 3.6-.8 4.9-2.1zm26 0c1.3-1.3 2.1-3.1 2.1-4.9 0-1.8-.8-3.6-2.1-5-1.3-1.3-3.1-2-4.9-2-1.8 0-3.7.8-5 2-1.3 1.3-2 3.1-2 5 0 1.8.8 3.6 2 4.9 1.3 1.3 3.1 2.1 5 2.1 1.8 0 3.6-.8 4.9-2.1zm-52 25c1.3-1.3 2.1-3.1 2.1-4.9 0-1.8-.8-3.6-2.1-5-1.3-1.3-3.1-2-4.9-2-1.8 0-3.7.8-5 2-1.3 1.3-2 3.1-2 5 0 1.8.8 3.6 2 4.9 1.3 1.3 3.1 2.1 5 2.1 1.8 0 3.6-.8 4.9-2.1zm26 0c1.3-1.3 2.1-3.1 2.1-4.9 0-1.8-.8-3.6-2.1-5-1.3-1.3-3.1-2-4.9-2-1.8 0-3.7.8-5 2-1.3 1.3-2 3.1-2 5 0 1.8.8 3.6 2 4.9 1.3 1.3 3.1 2.1 5 2.1 1.8 0 3.6-.8 4.9-2.1zm26 0c1.3-1.3 2.1-3.1 2.1-4.9 0-1.8-.8-3.6-2.1-5-1.3-1.3-3.1-2-4.9-2-1.8 0-3.7.8-5 2-1.3 1.3-2 3.1-2 5 0 1.8.8 3.6 2 4.9 1.3 1.3 3.1 2.1 5 2.1 1.8 0 3.6-.8 4.9-2.1zm-52 25c1.3-1.3 2.1-3.1 2.1-4.9 0-1.8-.8-3.6-2.1-5-1.3-1.3-3.1-2-4.9-2-1.8 0-3.7.8-5 2-1.3 1.3-2 3.1-2 5 0 1.8.8 3.6 2 4.9 1.3 1.3 3.1 2.1 5 2.1 1.8 0 3.6-.8 4.9-2.1zm26 0c1.3-1.3 2.1-3.1 2.1-4.9 0-1.8-.8-3.6-2.1-5-1.3-1.3-3.1-2-4.9-2-1.8 0-3.7.8-5 2-1.3 1.3-2 3.1-2 5 0 1.8.8 3.6 2 4.9 1.3 1.3 3.1 2.1 5 2.1 1.8 0 3.6-.8 4.9-2.1zm26 0c1.3-1.3 2.1-3.1 2.1-4.9 0-1.8-.8-3.6-2.1-5-1.3-1.3-3.1-2-4.9-2-1.8 0-3.7.8-5 2-1.3 1.3-2 3.1-2 5 0 1.8.8 3.6 2 4.9 1.3 1.3 3.1 2.1 5 2.1 1.8 0 3.6-.8 4.9-2.1z"/></svg>