<svg xmlns="http://www.w3.org/2000/svg" viewBox="0 0 92 92"><path d="M86.6 41.3H41.8c-3 0-5.4-2.4-5.4-5.4V22.4c0-3 2.4-5.4 5.4-5.4h44.7c3 0 5.4 2.4 5.4 5.4v13.5c.1 3-2.3 5.4-5.3 5.4zm-42.2-8H84V25H44.4v8.3zM86.6 75H41.8c-3 0-5.4-2.4-5.4-5.4V56.1c0-3 2.4-5.4 5.4-5.4h44.7c3 0 5.4 2.4 5.4 5.4v13.5c.1 3-2.3 5.4-5.3 5.4zm-42.2-8H84v-8.3H44.4V67zM23.7 41.3H5.6c-3.1 0-5.6-2.5-5.6-5.6V22.6C0 19.5 2.5 17 5.6 17h18.1c3.1 0 5.6 2.5 5.6 5.6v13.2c0 3-2.5 5.5-5.6 5.5zM8 33.3h13.3V25H8v8.3zM23.7 75H5.6C2.5 75 0 72.5 0 69.4V56.2c0-3.1 2.5-5.6 5.6-5.6h18.1c3.1 0 5.6 2.5 5.6 5.6v13.2c0 3.1-2.5 5.6-5.6 5.6zM8 67h13.3v-8.3H8V67z"/></svg>