<svg xmlns="http://www.w3.org/2000/svg" viewBox="0 0 92 92"><path d="M53.7 4.3c-1.5-.6-3.1-.3-4.3.9L29.8 25H20c-2.2 0-4 1.8-4 4v34c0 2.2 1.8 4 4 4h9.8l19.8 19.8c.8.8 1.8 1.2 2.8 1.2.5 0 .8-.1 1.3-.3 1.5-.6 2.3-2.1 2.3-3.7V8c0-1.6-.8-3.1-2.3-3.7zm-5.7 70L34.1 60.2c-.8-.8-1.6-1.2-2.6-1.2H24V33h7.4c1.1 0 1.9-.4 2.6-1.2l14-14.1v56.6zm21.3-11.4c-.8.9-1.9 1.3-3 1.3-1 0-1.9-.3-2.7-1-1.6-1.5-1.8-4-.3-5.6 10.3-11.5.4-22.7 0-23.2-1.5-1.6-1.3-4.2.3-5.6 1.6-1.5 4.2-1.3 5.6.3 5.3 5.8 12.1 20.4.1 33.8z"/></svg>