<svg xmlns="http://www.w3.org/2000/svg" viewBox="0 0 92 92"><path d="M37.7 4.3c-1.5-.6-3.1-.3-4.3.9L13.7 25H4c-2.2 0-4 1.8-4 4v34c0 2.2 1.8 4 4 4h9.8l19.7 19.8c.8.8 1.8 1.2 2.8 1.2.5 0 .9-.1 1.4-.3 1.5-.6 2.3-2.1 2.3-3.7V8c0-1.6-.8-3.1-2.3-3.7zm-5.7 70L18.1 60.2c-.8-.8-1.6-1.2-2.7-1.2H8V33h7.4c1.1 0 1.9-.4 2.7-1.2L32 17.7v56.6zm21.2-11.4c-.8.9-1.9 1.3-3 1.3-.9 0-1.9-.3-2.7-1-1.6-1.5-1.8-4-.3-5.6 10-11.2 1-22 0-23.2-1.5-1.7-1.3-4.2.3-5.6 1.6-1.5 4.2-1.3 5.6.3 5.3 5.8 12.1 20.4.1 33.8zm12.1 10.7c-.8.9-1.9 1.3-3 1.3-.9 0-1.9-.3-2.7-1-1.6-1.5-1.8-4-.3-5.6 19.7-22.1.8-43.7 0-44.6-1.5-1.7-1.3-4.2.3-5.7s4.2-1.3 5.7.3c.2.3 24.4 28 0 55.3zm12.6 8.1c-.8.9-1.9 1.3-3 1.3-.9 0-1.9-.3-2.7-1-1.6-1.5-1.8-4-.3-5.6 11.2-12.6 14.7-26.6 10.2-41.5-3.4-11.4-10.1-19-10.2-19.1-1.5-1.6-1.3-4.2.3-5.6 1.6-1.5 4.2-1.3 5.7.3.3.2 31.5 35.9 0 71.2z"/></svg>