<svg xmlns="http://www.w3.org/2000/svg" viewBox="0 0 92 92"><path d="M40.3 4.3c-1.5-.6-3.3-.2-4.5.9L16.5 25H7c-2.2 0-4 1.8-4 4v34c0 2.2 1.8 4 4 4h9.5l19.2 19.8c.8.8 1.8 1.2 2.9 1.2.5 0 1.2-.1 1.7-.3 1.5-.6 2.7-2.1 2.7-3.7V8c0-1.6-1.2-3.1-2.7-3.7zM35 74.2l-13.8-14c-.8-.8-2-1.2-3.1-1.2H11V33h7.2c1.1 0 2.3-.5 3.1-1.2l13.7-14v56.4zM87.9 58c1.5 1.6 1.5 4.1-.1 5.7-.8.7-1.8 1.1-2.8 1.1-1 0-2.1-.4-2.9-1.2L70.6 51.7 59.1 63.6c-.8.8-1.8 1.2-2.9 1.2-1 0-2-.4-2.8-1.1-1.6-1.5-1.6-4.1-.1-5.7L65 46 53.4 34c-1.5-1.6-1.5-4.1.1-5.7 1.6-1.5 4.1-1.5 5.7.1l11.5 11.8 11.5-11.8c1.5-1.6 4.1-1.6 5.7-.1 1.6 1.5 1.6 4.1.1 5.7L76.2 46l11.7 12z"/></svg>