<svg xmlns="http://www.w3.org/2000/svg" viewBox="0 0 92 92"><path d="M45.6 4.3c-1.5-.6-3.2-.3-4.3.9L21.7 25H12c-2.2 0-4 1.8-4 4v34c0 2.2 1.8 4 4 4h9.7l19.7 19.8c.8.8 1.8 1.2 2.8 1.2.5 0 .9-.1 1.4-.3 1.5-.6 2.4-2.1 2.4-3.7V8c0-1.6-.9-3.1-2.4-3.7zm-5.6 70L26.1 60.2c-.8-.8-1.7-1.2-2.7-1.2H16V33h7.4c1.1 0 2-.4 2.7-1.2L40 17.7v56.6zm21.1-11.4c-.8.9-1.9 1.3-3 1.3-.9 0-1.9-.3-2.7-1-1.7-1.5-1.8-4-.3-5.6 10-11.2 1-22 0-23.2-1.5-1.7-1.3-4.2.4-5.6 1.7-1.5 4.2-1.3 5.6.3 5.2 5.8 11.9 20.4 0 33.8zm12 10.7c-.8.9-1.9 1.3-3 1.3-.9 0-1.9-.3-2.7-1-1.7-1.5-1.8-4-.3-5.6 19.6-21.9.8-43.7 0-44.6-1.5-1.7-1.3-4.2.3-5.6 1.7-1.5 4.2-1.3 5.6.3.4.2 24.5 27.9.1 55.2z"/></svg>