<svg xmlns="http://www.w3.org/2000/svg" viewBox="0 0 92 92"><path d="M72.3 49.3c1.3 1.3 2 3.1 2 5 0 1.8-.7 3.6-2 4.9-1.3 1.3-3.1 2.1-5 2.1-1.8 0-3.6-.8-5-2.1-1.3-1.3-2-3.1-2-4.9 0-1.9.8-3.6 2-5 1.3-1.3 3.1-2 5-2 1.9-.1 3.7.7 5 2zM91 33.7v44.2c0 4.5-3.6 8.1-8.1 8.1H10.5C5.3 86 1 81.7 1 76.5V18C1 11.4 6.4 6 13 6h55.3c5.5 0 9.7 4.5 9.7 10v6h1.8C86 22 91 27.5 91 33.7zM8.4 18c0 2.2 1.8 4 4 4H70v-6.2c0-1-.8-1.8-1.8-1.8H12.4c-2.2 0-4 1.8-4 4zM83 33.7c0-1.7-1.4-3.7-3.2-3.7H10.6C9.7 30 9 31.2 9 32.1v44.4c0 .8.7 1.5 1.5 1.5h72.4c.1 0 .1-.1.1-.1V33.7z"/></svg>