<svg xmlns="http://www.w3.org/2000/svg" viewBox="0 0 92 92"><path d="M46 0C20.6 0 0 20.6 0 46s20.6 46 46 46 46-20.6 46-46S71.4 0 46 0zm3.7 83.8c-.2 0-.4 0-.7.1V62.2c5.2-.1 9.9-.2 14.2-.5-3.8 11.7-10.9 19.5-13.5 22.1zm-7.4 0c-2.7-2.7-9.7-10.5-13.5-22.1 4.2.3 9 .5 14.2.5v21.7c-.2 0-.4-.1-.7-.1zM8 46c0-2.5.3-5 .7-7.4 2.2-.4 6.4-1 12.3-1.6-.5 2.9-.8 5.9-.8 9.1 0 3.2.3 6.2.7 9-5.8-.6-10.1-1.2-12.3-1.6-.3-2.5-.6-5-.6-7.5zm18.3 0c0-3.4.4-6.6 1-9.6 4.6-.3 9.8-.6 15.7-.6v20.4c-5.8-.1-11.1-.3-15.8-.7-.5-2.9-.9-6.1-.9-9.5zM49.6 8.2c2.7 2.7 9.6 10.7 13.5 22.1-4.2-.3-8.9-.5-14.1-.5V8.1c.2 0 .4.1.6.1zM43 8.1v21.7c-5.2.1-9.9.2-14.1.5 3.8-11.4 10.8-19.4 13.4-22.1.3 0 .5-.1.7-.1zm6 48.1V35.8c5.8.1 11.1.3 15.7.6.6 3 1 6.2 1 9.6 0 3.4-.3 6.6-.9 9.6-4.6.3-9.9.5-15.8.6zM70.9 37c5.9.6 10.1 1.2 12.3 1.6.5 2.4.8 4.9.8 7.4s-.3 5-.7 7.4c-2.2.4-6.4 1-12.3 1.6.5-2.9.7-5.9.7-9.1 0-3-.3-6.1-.8-8.9zm10.5-4.8c-2.8-.4-6.8-.9-11.9-1.4-2.4-8.6-6.6-15.5-10.1-20.4 10.1 3.8 18.1 11.8 22 21.8zM32.6 10.4c-3.6 4.8-7.7 11.7-10.1 20.3-5 .4-9 1-11.9 1.4 3.9-9.9 12-17.9 22-21.7zm-22 49.4c2.8.4 6.8.9 11.8 1.4 2.4 8.6 6.4 15.5 10 20.3-10-3.9-17.9-11.8-21.8-21.7zm49 21.7c3.6-4.8 7.6-11.6 10-20.2 5-.4 9-1 11.8-1.4-3.9 9.8-11.8 17.7-21.8 21.6z"/></svg>