<svg xmlns="http://www.w3.org/2000/svg" viewBox="0 0 92 92"><path d="M76.1 40.6c2 1.9 2.2 5 .3 7-1 1.1-2.3 1.6-3.7 1.6-1.2 0-2.4-.4-3.4-1.3-22.2-20.3-46.1-1-47.1-.2-2.1 1.8-5.3 1.5-7-.6-1.8-2.1-1.5-5.2.6-7 10.9-9.1 37.3-20.6 60.3.5zM46.3 68.4c-2.5 0-5 1-6.7 2.8-1.8 1.8-2.8 4.2-2.8 6.7s1 4.9 2.8 6.7c1.8 1.8 4.2 2.8 6.7 2.8s5-1 6.7-2.8c1.8-1.8 2.8-4.2 2.8-6.7s-1-4.9-2.8-6.7c-1.8-1.8-4.2-2.8-6.7-2.8zm44-41.4C66.6 6.3 43.7 7.4 28.6 12 12.5 16.9 2 26.5 1.6 27c-2 1.9-2.1 5-.2 7 1.9 2 5.1 2.1 7.1.2.1-.1 9.2-8.5 23.1-12.7 18.4-5.6 35.9-1.2 52.2 13 .9.8 2.1 1.2 3.3 1.2 1.4 0 2.8-.6 3.8-1.7 1.7-2 1.5-5.2-.6-7zM29.5 54.3c-2.2 1.7-2.5 4.8-.8 7s4.9 2.5 7 .8c.4-.3 11-8.5 20-.1 1 .9 2.2 1.3 3.4 1.3 1.3 0 2.7-.5 3.7-1.6 1.9-2 1.8-5.2-.3-7-12.1-11.2-26.9-5.1-33-.4z"/></svg>