<svg xmlns="http://www.w3.org/2000/svg" viewBox="0 0 92 92"><path d="M90.7 84.3L55.9 50c4.2-5.3 6.6-11.9 6.6-19 0-17.1-14-31-31.3-31S0 13.9 0 31s14 31 31.3 31c6.8 0 13-2.1 18.1-5.8l35 34.5c.9.9 2 1.3 3.1 1.3 1.2 0 2.3-.4 3.2-1.3 1.7-1.8 1.7-4.6 0-6.4zM8 31C8 18.3 18.4 8 31.3 8s23.3 10.3 23.3 23-10.5 23-23.3 23S8 43.6 8 31zm38.9.5c0 1.9-1.6 3.5-3.5 3.5H35v8c0 1.9-1.6 3.5-3.5 3.5S28 44.9 28 43v-8h-8.9c-1.9 0-3.5-1.6-3.5-3.5s1.6-3.5 3.5-3.5H28v-9.1c0-1.9 1.6-3.5 3.5-3.5S35 17 35 18.9V28h8.4c2 0 3.5 1.6 3.5 3.5z"/></svg>