<svg xmlns="http://www.w3.org/2000/svg" viewBox="0 0 152 34" fill-rule="evenodd" stroke-linejoin="round" stroke-miterlimit="2"><path d="M0 27.472c0 4.409 6.18 5.552 13.5 5.552 7.281 0 13.5-1.103 13.5-5.513s-6.179-5.552-13.5-5.552c-7.281 0-13.5 1.103-13.5 5.513z" fill="#435ebe" fill-rule="nonzero"/><circle cx="13.5" cy="8.8" r="8.8" fill="#41bbdd"/><path d="M71.676 3.22c.709 0 1.279.228 1.71.684.431.431.646 1.013.646 1.748v22.496c0 .709-.203 1.267-.608 1.672s-.937.608-1.596.608-1.178-.203-1.558-.608-.57-.963-.57-1.672V12.492l-6.46 12.236c-.304.557-.633.975-.988 1.254-.355.253-.773.38-1.254.38s-.899-.127-1.254-.38-.684-.671-.988-1.254l-6.498-12.046v15.466c0 .684-.203 1.241-.608 1.672-.38.405-.899.608-1.558.608s-1.178-.203-1.558-.608-.57-.963-.57-1.672V5.652c0-.735.203-1.317.608-1.748.431-.456 1.001-.684 1.71-.684.988 0 1.761.545 2.318 1.634l8.436 16.074 8.398-16.074c.557-1.089 1.305-1.634 2.242-1.634zm15.801 7.942c2.584 0 4.497.646 5.738 1.938 1.267 1.267 1.9 3.205 1.9 5.814v9.272c0 .684-.203 1.229-.608 1.634-.405.38-.962.57-1.672.57-.658 0-1.203-.203-1.634-.608-.405-.405-.608-.937-.608-1.596v-.836c-.431.988-1.114 1.761-2.052 2.318-.912.557-1.976.836-3.192.836-1.241 0-2.368-.253-3.382-.76s-1.811-1.203-2.394-2.09-.874-1.875-.874-2.964c0-1.368.342-2.445 1.026-3.23.71-.785 1.85-1.355 3.42-1.71s3.737-.532 6.498-.532h.95v-.874c0-1.241-.266-2.141-.798-2.698-.532-.583-1.393-.874-2.584-.874a7.78 7.78 0 0 0-2.242.342c-.76.203-1.659.507-2.698.912-.658.329-1.14.494-1.444.494-.456 0-.836-.165-1.14-.494-.278-.329-.418-.76-.418-1.292 0-.431.102-.798.304-1.102.228-.329.596-.633 1.102-.912.887-.481 1.938-.861 3.154-1.14 1.242-.279 2.458-.418 3.648-.418zm-1.178 15.922c1.267 0 2.293-.418 3.078-1.254.811-.861 1.216-1.963 1.216-3.306v-.798h-.684c-1.697 0-3.015.076-3.952.228s-1.608.418-2.014.798-.608.899-.608 1.558c0 .811.279 1.482.836 2.014.583.507 1.292.76 2.128.76zm27.476-.456c1.418 0 2.128.595 2.128 1.786 0 .557-.178 1.001-.532 1.33-.355.304-.887.456-1.596.456h-12.692c-.634 0-1.153-.203-1.558-.608a1.97 1.97 0 0 1-.608-1.444c0-.583.228-1.14.684-1.672l9.766-11.286h-8.474c-.71 0-1.242-.152-1.596-.456s-.532-.747-.532-1.33.177-1.026.532-1.33.886-.456 1.596-.456h12.274c.658 0 1.178.203 1.558.608.405.38.608.861.608 1.444 0 .608-.216 1.165-.646 1.672l-9.804 11.286h8.892zm19.762-1.52c.431 0 .773.165 1.026.494.279.329.418.773.418 1.33 0 .785-.468 1.444-1.406 1.976-.861.481-1.836.874-2.926 1.178-1.089.279-2.128.418-3.116.418-2.989 0-5.358-.861-7.106-2.584s-2.622-4.079-2.622-7.068c0-1.9.38-3.585 1.14-5.054s1.824-2.609 3.192-3.42c1.394-.811 2.964-1.216 4.712-1.216 1.672 0 3.129.367 4.37 1.102s2.204 1.773 2.888 3.116 1.026 2.926 1.026 4.75c0 1.089-.481 1.634-1.444 1.634h-11.21c.152 1.748.646 3.04 1.482 3.876.836.811 2.052 1.216 3.648 1.216.811 0 1.52-.101 2.128-.304.634-.203 1.343-.481 2.128-.836.76-.405 1.318-.608 1.672-.608zm-6.574-10.602c-1.292 0-2.33.405-3.116 1.216-.76.811-1.216 1.976-1.368 3.496h8.588c-.05-1.545-.43-2.711-1.14-3.496-.709-.811-1.697-1.216-2.964-1.216zm22.43-3.268c.658-.051 1.178.089 1.558.418s.57.823.57 1.482c0 .684-.165 1.191-.494 1.52s-.925.545-1.786.646l-1.14.114c-1.495.152-2.597.659-3.306 1.52-.684.861-1.026 1.938-1.026 3.23v7.98c0 .735-.228 1.305-.684 1.71-.456.38-1.026.57-1.71.57s-1.254-.19-1.71-.57c-.431-.405-.646-.975-.646-1.71V13.442c0-.709.215-1.254.646-1.634.456-.38 1.013-.57 1.672-.57s1.19.19 1.596.57c.405.355.608.874.608 1.558v1.52c.481-1.115 1.19-1.976 2.128-2.584.962-.608 2.026-.95 3.192-1.026l.532-.038z" fill="#435ebe" fill-rule="nonzero"/></svg>